<svg width="99" height="90" viewBox="0 0 99 90" fill="none" xmlns="http://www.w3.org/2000/svg">
<path d="M64.5 15C64.5 18.9782 62.9196 22.7936 60.1066 25.6066C57.2936 28.4196 53.4782 30 49.5 30C45.5218 30 41.7064 28.4196 38.8934 25.6066C36.0804 22.7936 34.5 18.9782 34.5 15C34.5 11.0218 36.0804 7.20644 38.8934 4.3934C41.7064 1.58035 45.5218 0 49.5 0C53.4782 0 57.2936 1.58035 60.1066 4.3934C62.9196 7.20644 64.5 11.0218 64.5 15ZM15.75 30C18.7337 30 21.5952 28.8147 23.705 26.705C25.8147 24.5952 27 21.7337 27 18.75C27 15.7663 25.8147 12.9048 23.705 10.795C21.5952 8.68527 18.7337 7.5 15.75 7.5C12.7663 7.5 9.90483 8.68527 7.79505 10.795C5.68527 12.9048 4.5 15.7663 4.5 18.75C4.5 21.7337 5.68527 24.5952 7.79505 26.705C9.90483 28.8147 12.7663 30 15.75 30ZM83.25 30C86.2337 30 89.0952 28.8147 91.205 26.705C93.3147 24.5952 94.5 21.7337 94.5 18.75C94.5 15.7663 93.3147 12.9048 91.205 10.795C89.0952 8.68527 86.2337 7.5 83.25 7.5C80.2663 7.5 77.4048 8.68527 75.295 10.795C73.1853 12.9048 72 15.7663 72 18.75C72 21.7337 73.1853 24.5952 75.295 26.705C77.4048 28.8147 80.2663 30 83.25 30ZM27.8325 41.3438C28.4453 40.1833 29.3632 39.2121 30.4873 38.5347C31.6113 37.8574 32.8989 37.4996 34.2113 37.5H64.7887C66.7013 37.5 68.5355 38.2598 69.8879 39.6121C71.2402 40.9645 72 42.7987 72 44.7113V67.5C71.9802 73.0134 69.9377 78.3279 66.26 82.4354C62.5822 86.543 57.5249 89.158 52.0472 89.7846C46.5694 90.4112 41.0522 89.0057 36.5419 85.8347C32.0316 82.6637 28.8418 77.9478 27.5775 72.5813C27.1931 70.9148 26.9994 69.2102 27 67.5V44.7113C27 43.4963 27.3 42.3488 27.8325 41.3438ZM21.375 44.7113C21.375 43.5113 21.54 42.3488 21.8475 41.25H4.5C3.50544 41.25 2.55161 41.6451 1.84835 42.3484C1.14509 43.0516 0.75 44.0054 0.75 45V63.75C0.749436 66.3574 1.42855 68.9199 2.72037 71.1849C4.01219 73.4498 5.87209 75.3388 8.11664 76.6657C10.3612 77.9926 12.9128 78.7115 15.52 78.7515C18.1271 78.7915 20.6996 78.1512 22.9837 76.8938C21.9162 73.877 21.3721 70.7001 21.375 67.5V44.7113ZM77.625 67.5C77.6278 70.7 77.0837 73.877 76.0163 76.8938C78.3004 78.1512 80.8729 78.7915 83.48 78.7515C86.0872 78.7115 88.6388 77.9926 90.8834 76.6657C93.1279 75.3388 94.9878 73.4498 96.2796 71.1849C97.5714 68.9199 98.2506 66.3574 98.25 63.75V45C98.25 44.0054 97.8549 43.0516 97.1517 42.3484C96.4484 41.6451 95.4946 41.25 94.5 41.25H77.1525C77.46 42.3525 77.625 43.5113 77.625 44.7113V67.5Z" fill="#E1366A"/>
</svg>
