<svg width="95" height="106" viewBox="0 0 95 106" fill="none" xmlns="http://www.w3.org/2000/svg">
<path d="M27 4.25C27 3.25544 27.3951 2.30161 28.0984 1.59835C28.8016 0.895088 29.7554 0.5 30.75 0.5H60.75C61.7446 0.5 62.6984 0.895088 63.4017 1.59835C64.1049 2.30161 64.5 3.25544 64.5 4.25C64.5 5.24456 64.1049 6.19839 63.4017 6.90165C62.6984 7.60491 61.7446 8 60.75 8H30.75C29.7554 8 28.8016 7.60491 28.0984 6.90165C27.3951 6.19839 27 5.24456 27 4.25Z" fill="#E1366A"/>
<path d="M45.75 105.5C57.6847 105.5 69.1307 100.759 77.5698 92.3198C86.0089 83.8807 90.75 72.4347 90.75 60.5C90.75 48.5653 86.0089 37.1193 77.5698 28.6802C69.1307 20.2411 57.6847 15.5 45.75 15.5C33.8153 15.5 22.3693 20.2411 13.9302 28.6802C5.49106 37.1193 0.75 48.5653 0.75 60.5C0.75 72.4347 5.49106 83.8807 13.9302 92.3198C22.3693 100.759 33.8153 105.5 45.75 105.5ZM45.75 30.5C46.7446 30.5 47.6984 30.8951 48.4016 31.5984C49.1049 32.3016 49.5 33.2554 49.5 34.25V64.25C49.5 65.2446 49.1049 66.1984 48.4016 66.9017C47.6984 67.6049 46.7446 68 45.75 68C44.7554 68 43.8016 67.6049 43.0984 66.9017C42.3951 66.1984 42 65.2446 42 64.25V34.25C42 33.2554 42.3951 32.3016 43.0984 31.5984C43.8016 30.8951 44.7554 30.5 45.75 30.5Z" fill="#E1366A"/>
<path d="M82.897 12.8143C82.5511 12.4561 82.1373 12.1704 81.6798 11.9739C81.2223 11.7773 80.7302 11.6739 80.2323 11.6696C79.7344 11.6652 79.2406 11.7601 78.7797 11.9487C78.3188 12.1372 77.9001 12.4157 77.5481 12.7678C77.196 13.1199 76.9175 13.5386 76.729 13.9994C76.5404 14.4603 76.4455 14.9541 76.4498 15.452C76.4542 15.9499 76.5576 16.442 76.7542 16.8995C76.9507 17.357 77.2364 17.7708 77.5945 18.1168L88.117 28.6393C88.463 28.9974 88.8767 29.2831 89.3343 29.4796C89.7918 29.6762 90.2839 29.7796 90.7818 29.784C91.2797 29.7883 91.7735 29.6934 92.2344 29.5048C92.6952 29.3163 93.1139 29.0378 93.466 28.6857C93.8181 28.3336 94.0966 27.915 94.2851 27.4541C94.4737 26.9932 94.5685 26.4994 94.5642 26.0015C94.5599 25.5036 94.4564 25.0115 94.2599 24.554C94.0634 24.0965 93.7777 23.6827 93.4195 23.3368L82.897 12.8143Z" fill="#E1366A"/>
</svg>
