<svg width="369" height="558" viewBox="0 0 369 558" fill="none" xmlns="http://www.w3.org/2000/svg">
<g filter="url(#filter0_d)">
<rect x="15" y="10" width="339" height="528" rx="24" fill="white"/>
<rect x="16" y="11" width="337" height="526" rx="23" stroke="#F6F4FC" stroke-width="2"/>
</g>
<path d="M40.63 56.7C40.63 55.464 40.906 54.36 41.458 53.388C42.022 52.404 42.784 51.642 43.744 51.102C44.716 50.55 45.802 50.274 47.002 50.274C48.406 50.274 49.636 50.634 50.692 51.354C51.748 52.074 52.486 53.07 52.906 54.342H50.008C49.72 53.742 49.312 53.292 48.784 52.992C48.268 52.692 47.668 52.542 46.984 52.542C46.252 52.542 45.598 52.716 45.022 53.064C44.458 53.4 44.014 53.88 43.69 54.504C43.378 55.128 43.222 55.86 43.222 56.7C43.222 57.528 43.378 58.26 43.69 58.896C44.014 59.52 44.458 60.006 45.022 60.354C45.598 60.69 46.252 60.858 46.984 60.858C47.668 60.858 48.268 60.708 48.784 60.408C49.312 60.096 49.72 59.64 50.008 59.04H52.906C52.486 60.324 51.748 61.326 50.692 62.046C49.648 62.754 48.418 63.108 47.002 63.108C45.802 63.108 44.716 62.838 43.744 62.298C42.784 61.746 42.022 60.984 41.458 60.012C40.906 59.04 40.63 57.936 40.63 56.7ZM60.5304 63.126C59.3544 63.126 58.2744 62.85 57.2904 62.298C56.3064 61.746 55.5264 60.984 54.9504 60.012C54.3744 59.028 54.0864 57.918 54.0864 56.682C54.0864 55.458 54.3744 54.36 54.9504 53.388C55.5264 52.404 56.3064 51.636 57.2904 51.084C58.2744 50.532 59.3544 50.256 60.5304 50.256C61.7184 50.256 62.7984 50.532 63.7704 51.084C64.7544 51.636 65.5284 52.404 66.0924 53.388C66.6684 54.36 66.9564 55.458 66.9564 56.682C66.9564 57.918 66.6684 59.028 66.0924 60.012C65.5284 60.984 64.7544 61.746 63.7704 62.298C62.7864 62.85 61.7064 63.126 60.5304 63.126ZM60.5304 60.876C61.2864 60.876 61.9524 60.708 62.5284 60.372C63.1044 60.024 63.5544 59.532 63.8784 58.896C64.2024 58.26 64.3644 57.522 64.3644 56.682C64.3644 55.842 64.2024 55.11 63.8784 54.486C63.5544 53.85 63.1044 53.364 62.5284 53.028C61.9524 52.692 61.2864 52.524 60.5304 52.524C59.7744 52.524 59.1024 52.692 58.5144 53.028C57.9384 53.364 57.4884 53.85 57.1644 54.486C56.8404 55.11 56.6784 55.842 56.6784 56.682C56.6784 57.522 56.8404 58.26 57.1644 58.896C57.4884 59.532 57.9384 60.024 58.5144 60.372C59.1024 60.708 59.7744 60.876 60.5304 60.876ZM70.9552 50.436V58.212C70.9552 59.064 71.1772 59.718 71.6212 60.174C72.0652 60.618 72.6892 60.84 73.4932 60.84C74.3092 60.84 74.9392 60.618 75.3832 60.174C75.8272 59.718 76.0492 59.064 76.0492 58.212V50.436H78.5872V58.194C78.5872 59.262 78.3532 60.168 77.8852 60.912C77.4292 61.644 76.8112 62.196 76.0312 62.568C75.2632 62.94 74.4052 63.126 73.4572 63.126C72.5212 63.126 71.6692 62.94 70.9012 62.568C70.1452 62.196 69.5452 61.644 69.1012 60.912C68.6572 60.168 68.4352 59.262 68.4352 58.194V50.436H70.9552ZM73.5112 48.204L70.8292 49.716V47.88L73.5112 46.422L76.1752 47.88V49.716L73.5112 48.204ZM89.212 50.436V52.47H85.864V63H83.344V52.47H79.996V50.436H89.212ZM103.782 54.324C103.782 54.996 103.62 55.626 103.296 56.214C102.984 56.802 102.486 57.276 101.802 57.636C101.13 57.996 100.278 58.176 99.2457 58.176H97.1397V63H94.6197V50.436H99.2457C100.218 50.436 101.046 50.604 101.73 50.94C102.414 51.276 102.924 51.738 103.26 52.326C103.608 52.914 103.782 53.58 103.782 54.324ZM99.1377 56.142C99.8337 56.142 100.35 55.986 100.686 55.674C101.022 55.35 101.19 54.9 101.19 54.324C101.19 53.1 100.506 52.488 99.1377 52.488H97.1397V56.142H99.1377ZM112.915 60.606H107.911L107.083 63H104.437L108.955 50.418H111.889L116.407 63H113.743L112.915 60.606ZM112.231 58.59L110.413 53.334L108.595 58.59H112.231ZM124.216 63L121.444 58.104H120.256V63H117.736V50.436H122.452C123.424 50.436 124.252 50.61 124.936 50.958C125.62 51.294 126.13 51.756 126.466 52.344C126.814 52.92 126.988 53.568 126.988 54.288C126.988 55.116 126.748 55.866 126.268 56.538C125.788 57.198 125.074 57.654 124.126 57.906L127.132 63H124.216ZM120.256 56.214H122.362C123.046 56.214 123.556 56.052 123.892 55.728C124.228 55.392 124.396 54.93 124.396 54.342C124.396 53.766 124.228 53.322 123.892 53.01C123.556 52.686 123.046 52.524 122.362 52.524H120.256V56.214ZM141.998 54.324C141.998 54.996 141.836 55.626 141.512 56.214C141.2 56.802 140.702 57.276 140.018 57.636C139.346 57.996 138.494 58.176 137.462 58.176H135.356V63H132.836V50.436H137.462C138.434 50.436 139.262 50.604 139.946 50.94C140.63 51.276 141.14 51.738 141.476 52.326C141.824 52.914 141.998 53.58 141.998 54.324ZM137.354 56.142C138.05 56.142 138.566 55.986 138.902 55.674C139.238 55.35 139.406 54.9 139.406 54.324C139.406 53.1 138.722 52.488 137.354 52.488H135.356V56.142H137.354ZM151.131 60.606H146.127L145.299 63H142.653L147.171 50.418H150.105L154.623 63H151.959L151.131 60.606ZM150.447 58.59L148.629 53.334L146.811 58.59H150.447ZM162.432 63L159.66 58.104H158.472V63H155.952V50.436H160.668C161.64 50.436 162.468 50.61 163.152 50.958C163.836 51.294 164.346 51.756 164.682 52.344C165.03 52.92 165.204 53.568 165.204 54.288C165.204 55.116 164.964 55.866 164.484 56.538C164.004 57.198 163.29 57.654 162.342 57.906L165.348 63H162.432ZM158.472 56.214H160.578C161.262 56.214 161.772 56.052 162.108 55.728C162.444 55.392 162.612 54.93 162.612 54.342C162.612 53.766 162.444 53.322 162.108 53.01C161.772 52.686 161.262 52.524 160.578 52.524H158.472V56.214ZM175.673 50.436V52.47H172.325V63H169.805V52.47H166.457V50.436H175.673ZM179.672 50.436V63H177.152V50.436H179.672ZM181.19 56.7C181.19 55.464 181.466 54.36 182.018 53.388C182.582 52.404 183.344 51.642 184.304 51.102C185.276 50.55 186.362 50.274 187.562 50.274C188.966 50.274 190.196 50.634 191.252 51.354C192.308 52.074 193.046 53.07 193.466 54.342H190.568C190.28 53.742 189.872 53.292 189.344 52.992C188.828 52.692 188.228 52.542 187.544 52.542C186.812 52.542 186.158 52.716 185.582 53.064C185.018 53.4 184.574 53.88 184.25 54.504C183.938 55.128 183.782 55.86 183.782 56.7C183.782 57.528 183.938 58.26 184.25 58.896C184.574 59.52 185.018 60.006 185.582 60.354C186.158 60.69 186.812 60.858 187.544 60.858C188.228 60.858 188.828 60.708 189.344 60.408C189.872 60.096 190.28 59.64 190.568 59.04H193.466C193.046 60.324 192.308 61.326 191.252 62.046C190.208 62.754 188.978 63.108 187.562 63.108C186.362 63.108 185.276 62.838 184.304 62.298C183.344 61.746 182.582 60.984 182.018 60.012C181.466 59.04 181.19 57.936 181.19 56.7ZM197.778 50.436V63H195.258V50.436H197.778ZM209.07 54.324C209.07 54.996 208.908 55.626 208.584 56.214C208.272 56.802 207.774 57.276 207.09 57.636C206.418 57.996 205.566 58.176 204.534 58.176H202.428V63H199.908V50.436H204.534C205.506 50.436 206.334 50.604 207.018 50.94C207.702 51.276 208.212 51.738 208.548 52.326C208.896 52.914 209.07 53.58 209.07 54.324ZM204.426 56.142C205.122 56.142 205.638 55.986 205.974 55.674C206.31 55.35 206.478 54.9 206.478 54.324C206.478 53.1 205.794 52.488 204.426 52.488H202.428V56.142H204.426ZM218.203 60.606H213.199L212.371 63H209.725L214.243 50.418H217.177L221.695 63H219.031L218.203 60.606ZM217.519 58.59L215.701 53.334L213.883 58.59H217.519ZM233.77 63H231.25L225.544 54.378V63H223.024V50.418H225.544L231.25 59.058V50.418H233.77V63ZM244.45 50.436V52.47H241.102V63H238.582V52.47H235.234V50.436H244.45Z" fill="black"/>
<path d="M50.9432 101.148C50.5455 98.6591 48.5966 97.2045 46.1364 97.2045C43.125 97.2045 40.9034 99.4602 40.9034 103.182C40.9034 106.903 43.1136 109.159 46.1364 109.159C48.6932 109.159 50.5625 107.557 50.9432 105.256L49.1705 105.25C48.8693 106.739 47.6193 107.557 46.1477 107.557C44.1534 107.557 42.6477 106.028 42.6477 103.182C42.6477 100.358 44.1477 98.8068 46.1534 98.8068C47.6364 98.8068 48.8807 99.642 49.1705 101.148H50.9432ZM56.5838 109.176C59.044 109.176 60.652 107.375 60.652 104.676C60.652 101.96 59.044 100.159 56.5838 100.159C54.1236 100.159 52.5156 101.96 52.5156 104.676C52.5156 107.375 54.1236 109.176 56.5838 109.176ZM56.5895 107.75C54.9815 107.75 54.2315 106.347 54.2315 104.67C54.2315 103 54.9815 101.58 56.5895 101.58C58.1861 101.58 58.9361 103 58.9361 104.67C58.9361 106.347 58.1861 107.75 56.5895 107.75ZM64.2472 103.818C64.2472 102.426 65.0994 101.631 66.2812 101.631C67.4347 101.631 68.1335 102.386 68.1335 103.653V109H69.8324V103.449C69.8324 101.29 68.6449 100.159 66.8608 100.159C65.5483 100.159 64.6903 100.767 64.2869 101.693H64.179V100.273H62.5483V109H64.2472V103.818ZM76.1847 100.273H74.3949V98.1818H72.696V100.273H71.4176V101.636H72.696V106.79C72.6903 108.375 73.9006 109.142 75.2415 109.114C75.7812 109.108 76.1449 109.006 76.3438 108.932L76.0369 107.528C75.9233 107.551 75.7131 107.602 75.4403 107.602C74.8892 107.602 74.3949 107.42 74.3949 106.438V101.636H76.1847V100.273ZM78.0639 109H79.7628V103.67C79.7628 102.528 80.6435 101.705 81.848 101.705C82.2003 101.705 82.598 101.767 82.7344 101.807V100.182C82.5639 100.159 82.2287 100.142 82.0128 100.142C80.9901 100.142 80.1151 100.722 79.7969 101.659H79.706V100.273H78.0639V109ZM87.6534 109.176C89.5568 109.176 90.9034 108.239 91.2898 106.818L89.6818 106.528C89.375 107.352 88.6364 107.773 87.6705 107.773C86.2159 107.773 85.2386 106.83 85.1932 105.148H91.3977V104.545C91.3977 101.392 89.5114 100.159 87.5341 100.159C85.1023 100.159 83.5 102.011 83.5 104.693C83.5 107.403 85.0795 109.176 87.6534 109.176ZM85.1989 103.875C85.267 102.636 86.1648 101.562 87.5455 101.562C88.8636 101.562 89.7273 102.54 89.733 103.875H85.1989ZM93.2827 112.273H94.9815V107.642H95.0838C95.3906 108.199 96.0156 109.17 97.6065 109.17C99.7202 109.17 101.254 107.477 101.254 104.653C101.254 101.824 99.6974 100.159 97.5895 100.159C95.9702 100.159 95.3849 101.148 95.0838 101.688H94.9418V100.273H93.2827V112.273ZM94.9474 104.636C94.9474 102.812 95.7429 101.602 97.2259 101.602C98.7656 101.602 99.5384 102.903 99.5384 104.636C99.5384 106.386 98.7429 107.722 97.2259 107.722C95.7656 107.722 94.9474 106.472 94.9474 104.636ZM105.697 109.193C107.141 109.193 107.953 108.46 108.277 107.807H108.345V109H110.004V103.205C110.004 100.665 108.004 100.159 106.618 100.159C105.038 100.159 103.584 100.795 103.016 102.386L104.612 102.75C104.862 102.131 105.499 101.534 106.641 101.534C107.737 101.534 108.3 102.108 108.3 103.097V103.136C108.3 103.756 107.663 103.744 106.095 103.926C104.442 104.119 102.749 104.551 102.749 106.534C102.749 108.25 104.038 109.193 105.697 109.193ZM106.067 107.83C105.107 107.83 104.413 107.398 104.413 106.557C104.413 105.648 105.22 105.324 106.203 105.193C106.754 105.119 108.061 104.972 108.305 104.727V105.852C108.305 106.886 107.482 107.83 106.067 107.83ZM112.267 109H113.966V103.67C113.966 102.528 114.847 101.705 116.051 101.705C116.403 101.705 116.801 101.767 116.938 101.807V100.182C116.767 100.159 116.432 100.142 116.216 100.142C115.193 100.142 114.318 100.722 114 101.659H113.909V100.273H112.267V109ZM122.997 100.273H121.207V98.1818H119.509V100.273H118.23V101.636H119.509V106.79C119.503 108.375 120.713 109.142 122.054 109.114C122.594 109.108 122.957 109.006 123.156 108.932L122.849 107.528C122.736 107.551 122.526 107.602 122.253 107.602C121.702 107.602 121.207 107.42 121.207 106.438V101.636H122.997V100.273ZM124.876 109H126.575V100.273H124.876V109ZM125.734 98.9261C126.32 98.9261 126.808 98.4716 126.808 97.9148C126.808 97.358 126.32 96.8977 125.734 96.8977C125.143 96.8977 124.661 97.358 124.661 97.9148C124.661 98.4716 125.143 98.9261 125.734 98.9261ZM132.622 109.176C134.526 109.176 135.872 108.239 136.259 106.818L134.651 106.528C134.344 107.352 133.605 107.773 132.639 107.773C131.185 107.773 130.207 106.83 130.162 105.148H136.366V104.545C136.366 101.392 134.48 100.159 132.503 100.159C130.071 100.159 128.469 102.011 128.469 104.693C128.469 107.403 130.048 109.176 132.622 109.176ZM130.168 103.875C130.236 102.636 131.134 101.562 132.514 101.562C133.832 101.562 134.696 102.54 134.702 103.875H130.168Z" fill="#566380"/>
<path d="M41.2784 144H43.0341V139.597H45.4205C45.4602 139.597 45.4943 139.597 45.5341 139.597L47.8977 144H49.8977L47.3182 139.29C48.7443 138.761 49.4545 137.574 49.4545 136.011C49.4545 133.869 48.125 132.364 45.4261 132.364H41.2784V144ZM43.0341 138.085V133.869H45.2386C46.9716 133.869 47.6875 134.693 47.6875 136.011C47.6875 137.324 46.9716 138.085 45.2614 138.085H43.0341ZM55.1065 144.176C57.0099 144.176 58.3565 143.239 58.7429 141.818L57.1349 141.528C56.8281 142.352 56.0895 142.773 55.1236 142.773C53.669 142.773 52.6918 141.83 52.6463 140.148H58.8509V139.545C58.8509 136.392 56.9645 135.159 54.9872 135.159C52.5554 135.159 50.9531 137.011 50.9531 139.693C50.9531 142.403 52.5327 144.176 55.1065 144.176ZM52.652 138.875C52.7202 137.636 53.6179 136.562 54.9986 136.562C56.3168 136.562 57.1804 137.54 57.1861 138.875H52.652ZM64.4119 144.176C66.4744 144.176 67.8097 142.938 67.9972 141.239H66.3438C66.1278 142.182 65.3949 142.739 64.4233 142.739C62.9858 142.739 62.0597 141.54 62.0597 139.636C62.0597 137.767 63.0028 136.591 64.4233 136.591C65.5028 136.591 66.1619 137.273 66.3438 138.091H67.9972C67.8153 136.33 66.3778 135.159 64.3949 135.159C61.9347 135.159 60.3438 137.011 60.3438 139.676C60.3438 142.307 61.8778 144.176 64.4119 144.176ZM69.8139 144H71.5128V138.67C71.5128 137.528 72.3935 136.705 73.598 136.705C73.9503 136.705 74.348 136.767 74.4844 136.807V135.182C74.3139 135.159 73.9787 135.142 73.7628 135.142C72.7401 135.142 71.8651 135.722 71.5469 136.659H71.456V135.273H69.8139V144ZM81.483 140.381C81.4886 141.864 80.3864 142.568 79.4318 142.568C78.3807 142.568 77.6534 141.807 77.6534 140.619V135.273H75.9545V140.824C75.9545 142.989 77.142 144.114 78.8182 144.114C80.1307 144.114 81.0227 143.42 81.4261 142.489H81.517V144H83.1875V135.273H81.483V140.381ZM89.544 135.273H87.7543V133.182H86.0554V135.273H84.777V136.636H86.0554V141.79C86.0497 143.375 87.2599 144.142 88.6009 144.114C89.1406 144.108 89.5043 144.006 89.7031 143.932L89.3963 142.528C89.2827 142.551 89.0724 142.602 88.7997 142.602C88.2486 142.602 87.7543 142.42 87.7543 141.438V136.636H89.544V135.273ZM95.0909 144.176C96.9943 144.176 98.3409 143.239 98.7273 141.818L97.1193 141.528C96.8125 142.352 96.0739 142.773 95.108 142.773C93.6534 142.773 92.6761 141.83 92.6307 140.148H98.8352V139.545C98.8352 136.392 96.9489 135.159 94.9716 135.159C92.5398 135.159 90.9375 137.011 90.9375 139.693C90.9375 142.403 92.517 144.176 95.0909 144.176ZM92.6364 138.875C92.7045 137.636 93.6023 136.562 94.983 136.562C96.3011 136.562 97.1648 137.54 97.1705 138.875H92.6364ZM100.72 144H102.419V138.619C102.419 137.443 103.243 136.625 104.209 136.625C105.152 136.625 105.805 137.25 105.805 138.199V144H107.499V138.438C107.499 137.386 108.141 136.625 109.249 136.625C110.146 136.625 110.885 137.125 110.885 138.307V144H112.584V138.148C112.584 136.153 111.47 135.159 109.891 135.159C108.635 135.159 107.692 135.761 107.271 136.693H107.18C106.8 135.739 105.999 135.159 104.834 135.159C103.68 135.159 102.822 135.733 102.459 136.693H102.351V135.273H100.72V144ZM118.622 144.176C120.526 144.176 121.872 143.239 122.259 141.818L120.651 141.528C120.344 142.352 119.605 142.773 118.639 142.773C117.185 142.773 116.207 141.83 116.162 140.148H122.366V139.545C122.366 136.392 120.48 135.159 118.503 135.159C116.071 135.159 114.469 137.011 114.469 139.693C114.469 142.403 116.048 144.176 118.622 144.176ZM116.168 138.875C116.236 137.636 117.134 136.562 118.514 136.562C119.832 136.562 120.696 137.54 120.702 138.875H116.168ZM125.95 138.818C125.95 137.426 126.803 136.631 127.984 136.631C129.138 136.631 129.837 137.386 129.837 138.653V144H131.536V138.449C131.536 136.29 130.348 135.159 128.564 135.159C127.251 135.159 126.393 135.767 125.99 136.693H125.882V135.273H124.251V144H125.95V138.818ZM137.888 135.273H136.098V133.182H134.399V135.273H133.121V136.636H134.399V141.79C134.393 143.375 135.604 144.142 136.945 144.114C137.484 144.108 137.848 144.006 138.047 143.932L137.74 142.528C137.626 142.551 137.416 142.602 137.143 142.602C136.592 142.602 136.098 142.42 136.098 141.438V136.636H137.888V135.273Z" fill="#566380"/>
<path d="M50.6705 222.364H48.9318V230.909H48.8239L42.9034 222.364H41.2784V234H43.0341V225.466H43.142L49.0568 234H50.6705V222.364ZM56.7713 234.176C59.2315 234.176 60.8395 232.375 60.8395 229.676C60.8395 226.96 59.2315 225.159 56.7713 225.159C54.3111 225.159 52.7031 226.96 52.7031 229.676C52.7031 232.375 54.3111 234.176 56.7713 234.176ZM56.777 232.75C55.169 232.75 54.419 231.347 54.419 229.67C54.419 228 55.169 226.58 56.777 226.58C58.3736 226.58 59.1236 228 59.1236 229.67C59.1236 231.347 58.3736 232.75 56.777 232.75ZM62.7358 234H64.4347V228.619C64.4347 227.443 65.2585 226.625 66.2244 226.625C67.1676 226.625 67.821 227.25 67.821 228.199V234H69.5142V228.438C69.5142 227.386 70.1562 226.625 71.2642 226.625C72.1619 226.625 72.9006 227.125 72.9006 228.307V234H74.5994V228.148C74.5994 226.153 73.4858 225.159 71.9062 225.159C70.6506 225.159 69.7074 225.761 69.2869 226.693H69.196C68.8153 225.739 68.0142 225.159 66.8494 225.159C65.696 225.159 64.8381 225.733 64.4744 226.693H64.3665V225.273H62.7358V234ZM77.0128 234H78.6719V232.642H78.8139C79.1207 233.199 79.7457 234.17 81.3366 234.17C83.4503 234.17 84.9844 232.477 84.9844 229.653C84.9844 226.824 83.4276 225.159 81.3196 225.159C79.7003 225.159 79.1151 226.148 78.8139 226.688H78.7116V222.364H77.0128V234ZM78.6776 229.636C78.6776 227.812 79.473 226.602 80.956 226.602C82.4957 226.602 83.2685 227.903 83.2685 229.636C83.2685 231.386 82.473 232.722 80.956 232.722C79.4957 232.722 78.6776 231.472 78.6776 229.636ZM86.892 234H88.5909V228.67C88.5909 227.528 89.4716 226.705 90.6761 226.705C91.0284 226.705 91.4261 226.767 91.5625 226.807V225.182C91.392 225.159 91.0568 225.142 90.8409 225.142C89.8182 225.142 88.9432 225.722 88.625 226.659H88.5341V225.273H86.892V234ZM96.4815 234.176C98.3849 234.176 99.7315 233.239 100.118 231.818L98.5099 231.528C98.2031 232.352 97.4645 232.773 96.4986 232.773C95.044 232.773 94.0668 231.83 94.0213 230.148H100.226V229.545C100.226 226.392 98.3395 225.159 96.3622 225.159C93.9304 225.159 92.3281 227.011 92.3281 229.693C92.3281 232.403 93.9077 234.176 96.4815 234.176ZM94.027 228.875C94.0952 227.636 94.9929 226.562 96.3736 226.562C97.6918 226.562 98.5554 227.54 98.5611 228.875H94.027ZM109.612 234.17C111.203 234.17 111.828 233.199 112.135 232.642H112.277V234H113.936V222.364H112.237V226.688H112.135C111.828 226.148 111.249 225.159 109.624 225.159C107.516 225.159 105.964 226.824 105.964 229.653C105.964 232.477 107.493 234.17 109.612 234.17ZM109.987 232.722C108.47 232.722 107.68 231.386 107.68 229.636C107.68 227.903 108.453 226.602 109.987 226.602C111.47 226.602 112.266 227.812 112.266 229.636C112.266 231.472 111.453 232.722 109.987 232.722ZM120.122 234.176C122.026 234.176 123.372 233.239 123.759 231.818L122.151 231.528C121.844 232.352 121.105 232.773 120.139 232.773C118.685 232.773 117.707 231.83 117.662 230.148H123.866V229.545C123.866 226.392 121.98 225.159 120.003 225.159C117.571 225.159 115.969 227.011 115.969 229.693C115.969 232.403 117.548 234.176 120.122 234.176ZM117.668 228.875C117.736 227.636 118.634 226.562 120.014 226.562C121.332 226.562 122.196 227.54 122.202 228.875H117.668ZM129.986 237.273H131.685V232.642H131.787C132.094 233.199 132.719 234.17 134.31 234.17C136.423 234.17 137.957 232.477 137.957 229.653C137.957 226.824 136.401 225.159 134.293 225.159C132.673 225.159 132.088 226.148 131.787 226.688H131.645V225.273H129.986V237.273ZM131.651 229.636C131.651 227.812 132.446 226.602 133.929 226.602C135.469 226.602 136.241 227.903 136.241 229.636C136.241 231.386 135.446 232.722 133.929 232.722C132.469 232.722 131.651 231.472 131.651 229.636ZM142.401 234.193C143.844 234.193 144.656 233.46 144.98 232.807H145.048V234H146.707V228.205C146.707 225.665 144.707 225.159 143.321 225.159C141.741 225.159 140.287 225.795 139.719 227.386L141.315 227.75C141.565 227.131 142.202 226.534 143.344 226.534C144.44 226.534 145.003 227.108 145.003 228.097V228.136C145.003 228.756 144.366 228.744 142.798 228.926C141.145 229.119 139.452 229.551 139.452 231.534C139.452 233.25 140.741 234.193 142.401 234.193ZM142.77 232.83C141.81 232.83 141.116 232.398 141.116 231.557C141.116 230.648 141.923 230.324 142.906 230.193C143.457 230.119 144.764 229.972 145.009 229.727V230.852C145.009 231.886 144.185 232.83 142.77 232.83ZM148.97 234H150.669V228.67C150.669 227.528 151.55 226.705 152.754 226.705C153.107 226.705 153.504 226.767 153.641 226.807V225.182C153.47 225.159 153.135 225.142 152.919 225.142C151.896 225.142 151.021 225.722 150.703 226.659H150.612V225.273H148.97V234ZM159.7 225.273H157.911V223.182H156.212V225.273H154.933V226.636H156.212V231.79C156.206 233.375 157.416 234.142 158.757 234.114C159.297 234.108 159.661 234.006 159.859 233.932L159.553 232.528C159.439 232.551 159.229 232.602 158.956 232.602C158.405 232.602 157.911 232.42 157.911 231.438V226.636H159.7V225.273ZM161.58 234H163.278V225.273H161.58V234ZM162.438 223.926C163.023 223.926 163.511 223.472 163.511 222.915C163.511 222.358 163.023 221.898 162.438 221.898C161.847 221.898 161.364 222.358 161.364 222.915C161.364 223.472 161.847 223.926 162.438 223.926ZM169.24 234.176C171.303 234.176 172.638 232.938 172.825 231.239H171.172C170.956 232.182 170.223 232.739 169.251 232.739C167.814 232.739 166.888 231.54 166.888 229.636C166.888 227.767 167.831 226.591 169.251 226.591C170.331 226.591 170.99 227.273 171.172 228.091H172.825C172.643 226.33 171.206 225.159 169.223 225.159C166.763 225.159 165.172 227.011 165.172 229.676C165.172 232.307 166.706 234.176 169.24 234.176ZM174.642 234H176.341V225.273H174.642V234ZM175.5 223.926C176.085 223.926 176.574 223.472 176.574 222.915C176.574 222.358 176.085 221.898 175.5 221.898C174.909 221.898 174.426 222.358 174.426 222.915C174.426 223.472 174.909 223.926 175.5 223.926ZM178.626 237.273H180.325V232.642H180.428C180.734 233.199 181.359 234.17 182.95 234.17C185.064 234.17 186.598 232.477 186.598 229.653C186.598 226.824 185.041 225.159 182.933 225.159C181.314 225.159 180.729 226.148 180.428 226.688H180.286V225.273H178.626V237.273ZM180.291 229.636C180.291 227.812 181.087 226.602 182.57 226.602C184.109 226.602 184.882 227.903 184.882 229.636C184.882 231.386 184.087 232.722 182.57 232.722C181.109 232.722 180.291 231.472 180.291 229.636ZM191.041 234.193C192.484 234.193 193.297 233.46 193.621 232.807H193.689V234H195.348V228.205C195.348 225.665 193.348 225.159 191.962 225.159C190.382 225.159 188.928 225.795 188.359 227.386L189.956 227.75C190.206 227.131 190.842 226.534 191.984 226.534C193.081 226.534 193.643 227.108 193.643 228.097V228.136C193.643 228.756 193.007 228.744 191.439 228.926C189.786 229.119 188.092 229.551 188.092 231.534C188.092 233.25 189.382 234.193 191.041 234.193ZM191.411 232.83C190.45 232.83 189.757 232.398 189.757 231.557C189.757 230.648 190.564 230.324 191.547 230.193C192.098 230.119 193.405 229.972 193.649 229.727V230.852C193.649 231.886 192.825 232.83 191.411 232.83ZM199.31 228.818C199.31 227.426 200.162 226.631 201.344 226.631C202.497 226.631 203.196 227.386 203.196 228.653V234H204.895V228.449C204.895 226.29 203.707 225.159 201.923 225.159C200.611 225.159 199.753 225.767 199.349 226.693H199.241V225.273H197.611V234H199.31V228.818ZM211.247 225.273H209.457V223.182H207.759V225.273H206.48V226.636H207.759V231.79C207.753 233.375 208.963 234.142 210.304 234.114C210.844 234.108 211.207 234.006 211.406 233.932L211.099 232.528C210.986 232.551 210.776 232.602 210.503 232.602C209.952 232.602 209.457 232.42 209.457 231.438V226.636H211.247V225.273ZM219.526 227.403C219.173 226.045 218.111 225.159 216.224 225.159C214.253 225.159 212.855 226.199 212.855 227.744C212.855 228.983 213.605 229.807 215.241 230.17L216.719 230.494C217.56 230.682 217.952 231.057 217.952 231.602C217.952 232.278 217.23 232.807 216.116 232.807C215.099 232.807 214.446 232.369 214.241 231.511L212.599 231.761C212.884 233.307 214.168 234.176 216.128 234.176C218.236 234.176 219.696 233.057 219.696 231.477C219.696 230.244 218.912 229.483 217.31 229.114L215.923 228.795C214.963 228.568 214.548 228.244 214.554 227.653C214.548 226.983 215.276 226.506 216.241 226.506C217.298 226.506 217.787 227.091 217.986 227.676L219.526 227.403Z" fill="#566380"/>
<path d="M317.643 222.364H315.933L313.03 224.261V225.943L315.814 224.125H315.882V234H317.643V222.364ZM324.842 234.193C327.53 234.193 329.104 232 329.104 228.188C329.104 224.403 327.507 222.205 324.842 222.205C322.172 222.205 320.581 224.398 320.575 228.188C320.575 231.994 322.149 234.188 324.842 234.193ZM324.842 232.676C323.268 232.676 322.32 231.097 322.32 228.188C322.325 225.29 323.274 223.693 324.842 223.693C326.405 223.693 327.359 225.29 327.359 228.188C327.359 231.097 326.411 232.676 324.842 232.676Z" fill="#566380"/>
<path d="M303.311 179.159C305.828 179.159 307.629 177.773 307.635 175.881C307.629 174.426 306.555 173.21 305.203 172.983V172.903C306.379 172.642 307.197 171.585 307.203 170.324C307.197 168.534 305.55 167.205 303.311 167.205C301.055 167.205 299.408 168.528 299.413 170.324C299.408 171.585 300.214 172.642 301.413 172.903V172.983C300.038 173.21 298.976 174.426 298.982 175.881C298.976 177.773 300.771 179.159 303.311 179.159ZM303.311 177.534C301.993 177.534 301.141 176.807 301.152 175.733C301.141 174.619 302.055 173.83 303.311 173.83C304.55 173.83 305.459 174.625 305.47 175.733C305.459 176.807 304.612 177.534 303.311 177.534ZM303.311 172.233C302.232 172.233 301.459 171.534 301.47 170.523C301.459 169.523 302.209 168.852 303.311 168.852C304.396 168.852 305.141 169.523 305.152 170.523C305.141 171.54 304.374 172.233 303.311 172.233ZM313.804 179.222C316.611 179.227 318.287 177.011 318.287 173.193C318.287 169.398 316.599 167.205 313.804 167.205C311.009 167.205 309.327 169.392 309.321 173.193C309.321 177.006 310.997 179.222 313.804 179.222ZM313.804 177.443C312.355 177.443 311.446 175.989 311.452 173.193C311.457 170.42 312.361 168.96 313.804 168.96C315.253 168.96 316.156 170.42 316.162 173.193C316.162 175.989 315.259 177.443 313.804 177.443ZM327.675 171.403H323.334C323.743 169.852 324.732 169.102 326.004 169.102C326.999 169.102 327.766 169.568 328.311 170L329.107 168.307C328.266 167.602 327.22 167.205 326.004 167.205C323.589 167.205 321.766 168.75 321.209 171.403H320.033L319.584 172.614H321.05C321.038 172.801 321.033 172.994 321.033 173.193C321.033 173.381 321.038 173.568 321.05 173.75H320.033L319.584 174.977H321.209C321.766 177.625 323.589 179.159 326.004 179.159C327.175 179.159 328.26 178.801 329.072 178.097L328.266 176.403C327.771 176.801 327.004 177.261 326.004 177.261C324.726 177.261 323.743 176.528 323.334 174.977H326.038L326.624 173.75H323.146C323.135 173.574 323.129 173.386 323.129 173.193C323.129 172.994 323.135 172.801 323.146 172.614H327.124L327.675 171.403Z" fill="black"/>
<path d="M303.423 144.159C305.884 144.159 307.599 142.489 307.599 140.176C307.599 137.938 306.043 136.324 303.929 136.324C302.986 136.324 302.151 136.699 301.719 137.21H301.651L301.986 134.125H306.991V132.364H300.241L299.634 138.364L301.537 138.676C301.929 138.244 302.668 137.955 303.366 137.96C304.645 137.966 305.565 138.909 305.56 140.227C305.565 141.528 304.668 142.455 303.423 142.455C302.372 142.455 301.526 141.79 301.452 140.835H299.406C299.463 142.767 301.151 144.159 303.423 144.159ZM313.804 144.222C316.611 144.227 318.287 142.011 318.287 138.193C318.287 134.398 316.599 132.205 313.804 132.205C311.009 132.205 309.327 134.392 309.321 138.193C309.321 142.006 310.997 144.222 313.804 144.222ZM313.804 142.443C312.355 142.443 311.446 140.989 311.452 138.193C311.457 135.42 312.361 133.96 313.804 133.96C315.253 133.96 316.156 135.42 316.162 138.193C316.162 140.989 315.259 142.443 313.804 142.443ZM327.675 136.403H323.334C323.743 134.852 324.732 134.102 326.004 134.102C326.999 134.102 327.766 134.568 328.311 135L329.107 133.307C328.266 132.602 327.22 132.205 326.004 132.205C323.589 132.205 321.766 133.75 321.209 136.403H320.033L319.584 137.614H321.05C321.038 137.801 321.033 137.994 321.033 138.193C321.033 138.381 321.038 138.568 321.05 138.75H320.033L319.584 139.977H321.209C321.766 142.625 323.589 144.159 326.004 144.159C327.175 144.159 328.26 143.801 329.072 143.097L328.266 141.403C327.771 141.801 327.004 142.261 326.004 142.261C324.726 142.261 323.743 141.528 323.334 139.977H326.038L326.624 138.75H323.146C323.135 138.574 323.129 138.386 323.129 138.193C323.129 137.994 323.135 137.801 323.146 137.614H327.124L327.675 136.403Z" fill="#566380"/>
<path d="M303.257 109.159C305.746 109.159 307.558 107.733 307.553 105.767C307.558 104.312 306.649 103.267 305.018 103.034V102.943C306.28 102.67 307.126 101.733 307.121 100.426C307.126 98.6534 305.615 97.2045 303.291 97.2045C301.03 97.2045 299.28 98.5511 299.234 100.5H301.263C301.297 99.5227 302.206 98.9148 303.28 98.9148C304.365 98.9148 305.087 99.5739 305.081 100.551C305.087 101.568 304.246 102.244 303.041 102.244H302.013V103.869H303.041C304.513 103.869 305.388 104.608 305.382 105.659C305.388 106.688 304.496 107.392 303.251 107.392C302.081 107.392 301.178 106.784 301.126 105.835H298.99C299.047 107.801 300.803 109.159 303.257 109.159ZM313.804 109.222C316.611 109.227 318.287 107.011 318.287 103.193C318.287 99.3977 316.599 97.2045 313.804 97.2045C311.009 97.2045 309.327 99.392 309.321 103.193C309.321 107.006 310.997 109.222 313.804 109.222ZM313.804 107.443C312.355 107.443 311.446 105.989 311.452 103.193C311.457 100.42 312.361 98.9602 313.804 98.9602C315.253 98.9602 316.156 100.42 316.162 103.193C316.162 105.989 315.259 107.443 313.804 107.443ZM327.675 101.403H323.334C323.743 99.8523 324.732 99.1023 326.004 99.1023C326.999 99.1023 327.766 99.5682 328.311 100L329.107 98.3068C328.266 97.6023 327.22 97.2045 326.004 97.2045C323.589 97.2045 321.766 98.75 321.209 101.403H320.033L319.584 102.614H321.05C321.038 102.801 321.033 102.994 321.033 103.193C321.033 103.381 321.038 103.568 321.05 103.75H320.033L319.584 104.977H321.209C321.766 107.625 323.589 109.159 326.004 109.159C327.175 109.159 328.26 108.801 329.072 108.097L328.266 106.403C327.771 106.801 327.004 107.261 326.004 107.261C324.726 107.261 323.743 106.528 323.334 104.977H326.038L326.624 103.75H323.146C323.135 103.574 323.129 103.386 323.129 103.193C323.129 102.994 323.135 102.801 323.146 102.614H327.124L327.675 101.403Z" fill="#566380"/>
<path d="M50.7727 369C50.3409 366.614 48.4318 365.205 46.0909 365.205C43.1136 365.205 40.9545 367.5 40.9545 371.182C40.9545 374.864 43.1136 377.159 46.0909 377.159C48.4318 377.159 50.3409 375.75 50.7727 373.364H49.3636C49.0227 374.977 47.6364 375.841 46.0909 375.841C43.9773 375.841 42.3182 374.205 42.3182 371.182C42.3182 368.159 43.9773 366.523 46.0909 366.523C47.6364 366.523 49.0227 367.386 49.3636 369H50.7727ZM56.527 377.182C58.2997 377.182 59.5952 376.295 60.0043 374.977L58.7088 374.614C58.3679 375.523 57.5781 375.977 56.527 375.977C54.9531 375.977 53.8679 374.96 53.8054 373.091H60.1406V372.523C60.1406 369.273 58.2088 368.159 56.3906 368.159C54.027 368.159 52.4588 370.023 52.4588 372.705C52.4588 375.386 54.0043 377.182 56.527 377.182ZM53.8054 371.932C53.8963 370.574 54.8565 369.364 56.3906 369.364C57.8452 369.364 58.777 370.455 58.777 371.932H53.8054ZM65.7259 377.182C67.6577 377.182 68.9304 376 69.1577 374.455H67.8168C67.5668 375.409 66.7713 375.977 65.7259 375.977C64.1349 375.977 63.1122 374.659 63.1122 372.636C63.1122 370.659 64.1577 369.364 65.7259 369.364C66.9077 369.364 67.6122 370.091 67.8168 370.886H69.1577C68.9304 369.25 67.544 368.159 65.7031 368.159C63.3395 368.159 61.7713 370.023 61.7713 372.682C61.7713 375.295 63.2713 377.182 65.7259 377.182ZM71.1179 377H72.4588V368.273H71.1179V377ZM71.7997 366.818C72.3224 366.818 72.7543 366.409 72.7543 365.909C72.7543 365.409 72.3224 365 71.7997 365C71.277 365 70.8452 365.409 70.8452 365.909C70.8452 366.409 71.277 366.818 71.7997 366.818ZM83.0739 377.182C84.8466 377.182 86.142 376.295 86.5511 374.977L85.2557 374.614C84.9148 375.523 84.125 375.977 83.0739 375.977C81.5 375.977 80.4148 374.96 80.3523 373.091H86.6875V372.523C86.6875 369.273 84.7557 368.159 82.9375 368.159C80.5739 368.159 79.0057 370.023 79.0057 372.705C79.0057 375.386 80.5511 377.182 83.0739 377.182ZM80.3523 371.932C80.4432 370.574 81.4034 369.364 82.9375 369.364C84.392 369.364 85.3239 370.455 85.3239 371.932H80.3523ZM94.9091 370.227C94.4886 368.989 93.5455 368.159 91.8182 368.159C89.9773 368.159 88.6136 369.205 88.6136 370.682C88.6136 371.886 89.3295 372.693 90.9318 373.068L92.3864 373.409C93.267 373.614 93.6818 374.034 93.6818 374.636C93.6818 375.386 92.8864 376 91.6364 376C90.5398 376 89.8523 375.528 89.6136 374.591L88.3409 374.909C88.6534 376.392 89.875 377.182 91.6591 377.182C93.6875 377.182 95.0682 376.074 95.0682 374.568C95.0682 373.352 94.3068 372.585 92.75 372.205L91.4545 371.886C90.4205 371.631 89.9545 371.284 89.9545 370.614C89.9545 369.864 90.75 369.318 91.8182 369.318C92.9886 369.318 93.4716 369.966 93.7045 370.568L94.9091 370.227ZM100.882 368.273H99.0185V366.182H97.6776V368.273H96.3594V369.409H97.6776V374.864C97.6776 376.386 98.9048 377.114 100.041 377.114C100.541 377.114 100.859 377.023 101.041 376.955L100.768 375.75C100.655 375.773 100.473 375.818 100.178 375.818C99.5866 375.818 99.0185 375.636 99.0185 374.5V369.409H100.882V368.273ZM112.899 373.432C112.899 375.068 111.649 375.818 110.649 375.818C109.536 375.818 108.74 375 108.74 373.727V368.273H107.399V373.818C107.399 376.045 108.581 377.114 110.217 377.114C111.536 377.114 112.399 376.409 112.808 375.523H112.899V377H114.24V368.273H112.899V373.432ZM118.037 371.75C118.037 370.227 118.98 369.364 120.264 369.364C121.509 369.364 122.264 370.176 122.264 371.545V377H123.605V371.455C123.605 369.227 122.418 368.159 120.651 368.159C119.332 368.159 118.514 368.75 118.105 369.636H117.991V368.273H116.696V377H118.037V371.75ZM129.714 377.182C131.487 377.182 132.783 376.295 133.192 374.977L131.896 374.614C131.555 375.523 130.766 375.977 129.714 375.977C128.141 375.977 127.055 374.96 126.993 373.091H133.328V372.523C133.328 369.273 131.396 368.159 129.578 368.159C127.214 368.159 125.646 370.023 125.646 372.705C125.646 375.386 127.192 377.182 129.714 377.182ZM126.993 371.932C127.084 370.574 128.044 369.364 129.578 369.364C131.033 369.364 131.964 370.455 131.964 371.932H126.993ZM143.527 377.182C145.3 377.182 146.595 376.295 147.004 374.977L145.709 374.614C145.368 375.523 144.578 375.977 143.527 375.977C141.953 375.977 140.868 374.96 140.805 373.091H147.141V372.523C147.141 369.273 145.209 368.159 143.391 368.159C141.027 368.159 139.459 370.023 139.459 372.705C139.459 375.386 141.004 377.182 143.527 377.182ZM140.805 371.932C140.896 370.574 141.857 369.364 143.391 369.364C144.845 369.364 145.777 370.455 145.777 371.932H140.805ZM155.362 370.227C154.942 368.989 153.999 368.159 152.271 368.159C150.43 368.159 149.067 369.205 149.067 370.682C149.067 371.886 149.783 372.693 151.385 373.068L152.839 373.409C153.72 373.614 154.135 374.034 154.135 374.636C154.135 375.386 153.339 376 152.089 376C150.993 376 150.305 375.528 150.067 374.591L148.794 374.909C149.107 376.392 150.328 377.182 152.112 377.182C154.141 377.182 155.521 376.074 155.521 374.568C155.521 373.352 154.76 372.585 153.203 372.205L151.908 371.886C150.874 371.631 150.408 371.284 150.408 370.614C150.408 369.864 151.203 369.318 152.271 369.318C153.442 369.318 153.925 369.966 154.158 370.568L155.362 370.227ZM161.335 368.273H159.472V366.182H158.131V368.273H156.812V369.409H158.131V374.864C158.131 376.386 159.358 377.114 160.494 377.114C160.994 377.114 161.312 377.023 161.494 376.955L161.222 375.75C161.108 375.773 160.926 375.818 160.631 375.818C160.04 375.818 159.472 375.636 159.472 374.5V369.409H161.335V368.273ZM163.352 377H164.693V368.273H163.352V377ZM164.034 366.818C164.557 366.818 164.989 366.409 164.989 365.909C164.989 365.409 164.557 365 164.034 365C163.511 365 163.08 365.409 163.08 365.909C163.08 366.409 163.511 366.818 164.034 366.818ZM167.149 377H168.49V371.545C168.49 370.267 169.422 369.364 170.467 369.364C171.484 369.364 172.195 370.028 172.195 371.023V377H173.558V371.318C173.558 370.193 174.263 369.364 175.49 369.364C176.445 369.364 177.263 369.869 177.263 371.159V377H178.604V371.159C178.604 369.108 177.501 368.159 175.945 368.159C174.695 368.159 173.78 368.733 173.331 369.636H173.24C172.808 368.705 172.047 368.159 170.899 368.159C169.763 368.159 168.922 368.705 168.558 369.636H168.445V368.273H167.149V377ZM183.624 377.205C185.146 377.205 185.942 376.386 186.214 375.818H186.283V377H187.624V371.25C187.624 368.477 185.51 368.159 184.396 368.159C183.078 368.159 181.578 368.614 180.896 370.205L182.169 370.659C182.464 370.023 183.163 369.341 184.442 369.341C185.675 369.341 186.283 369.994 186.283 371.114V371.159C186.283 371.807 185.624 371.75 184.033 371.955C182.413 372.165 180.646 372.523 180.646 374.523C180.646 376.227 181.964 377.205 183.624 377.205ZM183.828 376C182.76 376 181.987 375.523 181.987 374.591C181.987 373.568 182.919 373.25 183.964 373.114C184.533 373.045 186.055 372.886 186.283 372.614V373.841C186.283 374.932 185.419 376 183.828 376ZM193.866 368.273H192.003V366.182H190.662V368.273H189.344V369.409H190.662V374.864C190.662 376.386 191.889 377.114 193.026 377.114C193.526 377.114 193.844 377.023 194.026 376.955L193.753 375.75C193.639 375.773 193.457 375.818 193.162 375.818C192.571 375.818 192.003 375.636 192.003 374.5V369.409H193.866V368.273ZM195.884 377H197.224V368.273H195.884V377ZM196.565 366.818C197.088 366.818 197.52 366.409 197.52 365.909C197.52 365.409 197.088 365 196.565 365C196.043 365 195.611 365.409 195.611 365.909C195.611 366.409 196.043 366.818 196.565 366.818ZM203.226 377.182C205.589 377.182 207.18 375.386 207.18 372.682C207.18 369.955 205.589 368.159 203.226 368.159C200.862 368.159 199.271 369.955 199.271 372.682C199.271 375.386 200.862 377.182 203.226 377.182ZM203.226 375.977C201.43 375.977 200.612 374.432 200.612 372.682C200.612 370.932 201.43 369.364 203.226 369.364C205.021 369.364 205.839 370.932 205.839 372.682C205.839 374.432 205.021 375.977 203.226 375.977ZM210.568 371.75C210.568 370.227 211.511 369.364 212.795 369.364C214.04 369.364 214.795 370.176 214.795 371.545V377H216.136V371.455C216.136 369.227 214.949 368.159 213.182 368.159C211.864 368.159 211.045 368.75 210.636 369.636H210.523V368.273H209.227V377H210.568V371.75ZM219.564 377.091C220.126 377.091 220.587 376.631 220.587 376.068C220.587 375.506 220.126 375.045 219.564 375.045C219.001 375.045 218.541 375.506 218.541 376.068C218.541 376.631 219.001 377.091 219.564 377.091ZM228.152 365.364H226.675L230.947 377H232.402L236.675 365.364H235.197L231.743 375.159H231.607L228.152 365.364ZM241.038 377.182C243.402 377.182 244.993 375.386 244.993 372.682C244.993 369.955 243.402 368.159 241.038 368.159C238.675 368.159 237.084 369.955 237.084 372.682C237.084 375.386 238.675 377.182 241.038 377.182ZM241.038 375.977C239.243 375.977 238.425 374.432 238.425 372.682C238.425 370.932 239.243 369.364 241.038 369.364C242.834 369.364 243.652 370.932 243.652 372.682C243.652 374.432 242.834 375.977 241.038 375.977ZM252.54 373.432C252.54 375.068 251.29 375.818 250.29 375.818C249.176 375.818 248.381 375 248.381 373.727V368.273H247.04V373.818C247.04 376.045 248.222 377.114 249.858 377.114C251.176 377.114 252.04 376.409 252.449 375.523H252.54V377H253.881V368.273H252.54V373.432ZM262.518 370.227C262.098 368.989 261.155 368.159 259.428 368.159C257.587 368.159 256.223 369.205 256.223 370.682C256.223 371.886 256.939 372.693 258.541 373.068L259.996 373.409C260.876 373.614 261.291 374.034 261.291 374.636C261.291 375.386 260.496 376 259.246 376C258.149 376 257.462 375.528 257.223 374.591L255.95 374.909C256.263 376.392 257.484 377.182 259.268 377.182C261.297 377.182 262.678 376.074 262.678 374.568C262.678 373.352 261.916 372.585 260.359 372.205L259.064 371.886C258.03 371.631 257.564 371.284 257.564 370.614C257.564 369.864 258.359 369.318 259.428 369.318C260.598 369.318 261.081 369.966 261.314 370.568L262.518 370.227ZM270.537 371.75C270.537 370.227 271.48 369.364 272.764 369.364C274.009 369.364 274.764 370.176 274.764 371.545V377H276.105V371.455C276.105 369.227 274.918 368.159 273.151 368.159C271.832 368.159 271.014 368.75 270.605 369.636H270.491V368.273H269.196V377H270.537V371.75ZM282.214 377.182C283.987 377.182 285.283 376.295 285.692 374.977L284.396 374.614C284.055 375.523 283.266 375.977 282.214 375.977C280.641 375.977 279.555 374.96 279.493 373.091H285.828V372.523C285.828 369.273 283.896 368.159 282.078 368.159C279.714 368.159 278.146 370.023 278.146 372.705C278.146 375.386 279.692 377.182 282.214 377.182ZM279.493 371.932C279.584 370.574 280.544 369.364 282.078 369.364C283.533 369.364 284.464 370.455 284.464 371.932H279.493ZM41.2273 400.273H42.5682V395.659H42.6818C42.9773 396.136 43.5455 397.182 45.2273 397.182C47.4091 397.182 48.9318 395.432 48.9318 392.659C48.9318 389.909 47.4091 388.159 45.2045 388.159C43.5 388.159 42.9773 389.205 42.6818 389.659H42.5227V388.273H41.2273V400.273ZM42.5455 392.636C42.5455 390.682 43.4091 389.364 45.0455 389.364C46.75 389.364 47.5909 390.795 47.5909 392.636C47.5909 394.5 46.7273 395.977 45.0455 395.977C43.4318 395.977 42.5455 394.614 42.5455 392.636ZM53.5455 397.205C55.0682 397.205 55.8636 396.386 56.1364 395.818H56.2045V397H57.5455V391.25C57.5455 388.477 55.4318 388.159 54.3182 388.159C53 388.159 51.5 388.614 50.8182 390.205L52.0909 390.659C52.3864 390.023 53.0852 389.341 54.3636 389.341C55.5966 389.341 56.2045 389.994 56.2045 391.114V391.159C56.2045 391.807 55.5455 391.75 53.9545 391.955C52.3352 392.165 50.5682 392.523 50.5682 394.523C50.5682 396.227 51.8864 397.205 53.5455 397.205ZM53.75 396C52.6818 396 51.9091 395.523 51.9091 394.591C51.9091 393.568 52.8409 393.25 53.8864 393.114C54.4545 393.045 55.9773 392.886 56.2045 392.614V393.841C56.2045 394.932 55.3409 396 53.75 396ZM60.544 400.273C61.7543 400.273 62.6065 399.631 63.1122 398.273L66.8281 388.295L65.3622 388.273L62.9531 395.227H62.8622L60.4531 388.273H58.9986L62.2259 397.045L61.9759 397.727C61.4872 399.057 60.8849 399.182 59.9077 398.932L59.5668 400.114C59.7031 400.182 60.0895 400.273 60.544 400.273ZM71.9489 397.182C73.7216 397.182 75.017 396.295 75.4261 394.977L74.1307 394.614C73.7898 395.523 73 395.977 71.9489 395.977C70.375 395.977 69.2898 394.96 69.2273 393.091H75.5625V392.523C75.5625 389.273 73.6307 388.159 71.8125 388.159C69.4489 388.159 67.8807 390.023 67.8807 392.705C67.8807 395.386 69.4261 397.182 71.9489 397.182ZM69.2273 391.932C69.3182 390.574 70.2784 389.364 71.8125 389.364C73.267 389.364 74.1989 390.455 74.1989 391.932H69.2273ZM77.3523 397H84.1932V395.75H79.2159V395.659L84.0341 389.341V388.273H77.5114V389.523H82.3068V389.614L77.3523 395.977V397ZM98.054 400.273V388.273H96.7585V389.659H96.5994C96.304 389.205 95.7812 388.159 94.0767 388.159C91.8722 388.159 90.3494 389.909 90.3494 392.659C90.3494 395.432 91.8722 397.182 94.054 397.182C95.7358 397.182 96.304 396.136 96.5994 395.659H96.7131V400.273H98.054ZM96.7358 392.636C96.7358 394.614 95.8494 395.977 94.2358 395.977C92.554 395.977 91.6903 394.5 91.6903 392.636C91.6903 390.795 92.5312 389.364 94.2358 389.364C95.8722 389.364 96.7358 390.682 96.7358 392.636ZM106.009 393.432C106.009 395.068 104.759 395.818 103.759 395.818C102.645 395.818 101.849 395 101.849 393.727V388.273H100.509V393.818C100.509 396.045 101.69 397.114 103.327 397.114C104.645 397.114 105.509 396.409 105.918 395.523H106.009V397H107.349V388.273H106.009V393.432ZM113.464 397.182C115.237 397.182 116.533 396.295 116.942 394.977L115.646 394.614C115.305 395.523 114.516 395.977 113.464 395.977C111.891 395.977 110.805 394.96 110.743 393.091H117.078V392.523C117.078 389.273 115.146 388.159 113.328 388.159C110.964 388.159 109.396 390.023 109.396 392.705C109.396 395.386 110.942 397.182 113.464 397.182ZM110.743 391.932C110.834 390.574 111.794 389.364 113.328 389.364C114.783 389.364 115.714 390.455 115.714 391.932H110.743ZM123.618 400.273H124.959V395.659H125.072C125.368 396.136 125.936 397.182 127.618 397.182C129.8 397.182 131.322 395.432 131.322 392.659C131.322 389.909 129.8 388.159 127.595 388.159C125.891 388.159 125.368 389.205 125.072 389.659H124.913V388.273H123.618V400.273ZM124.936 392.636C124.936 390.682 125.8 389.364 127.436 389.364C129.141 389.364 129.982 390.795 129.982 392.636C129.982 394.5 129.118 395.977 127.436 395.977C125.822 395.977 124.936 394.614 124.936 392.636ZM136.913 397.182C139.277 397.182 140.868 395.386 140.868 392.682C140.868 389.955 139.277 388.159 136.913 388.159C134.55 388.159 132.959 389.955 132.959 392.682C132.959 395.386 134.55 397.182 136.913 397.182ZM136.913 395.977C135.118 395.977 134.3 394.432 134.3 392.682C134.3 390.932 135.118 389.364 136.913 389.364C138.709 389.364 139.527 390.932 139.527 392.682C139.527 394.432 138.709 395.977 136.913 395.977ZM148.415 393.432C148.415 395.068 147.165 395.818 146.165 395.818C145.051 395.818 144.256 395 144.256 393.727V388.273H142.915V393.818C142.915 396.045 144.097 397.114 145.733 397.114C147.051 397.114 147.915 396.409 148.324 395.523H148.415V397H149.756V388.273H148.415V393.432ZM152.212 397H153.553V391.477C153.553 390.295 154.484 389.432 155.757 389.432C156.115 389.432 156.484 389.5 156.575 389.523V388.159C156.422 388.148 156.07 388.136 155.871 388.136C154.825 388.136 153.916 388.727 153.598 389.591H153.507V388.273H152.212V397ZM164.006 385.364H162.665V397H164.006V385.364ZM170.121 397.182C171.893 397.182 173.189 396.295 173.598 394.977L172.303 394.614C171.962 395.523 171.172 395.977 170.121 395.977C168.547 395.977 167.462 394.96 167.399 393.091H173.734V392.523C173.734 389.273 171.803 388.159 169.984 388.159C167.621 388.159 166.053 390.023 166.053 392.705C166.053 395.386 167.598 397.182 170.121 397.182ZM167.399 391.932C167.49 390.574 168.45 389.364 169.984 389.364C171.439 389.364 172.371 390.455 172.371 391.932H167.399ZM181.956 390.227C181.536 388.989 180.592 388.159 178.865 388.159C177.024 388.159 175.661 389.205 175.661 390.682C175.661 391.886 176.376 392.693 177.979 393.068L179.433 393.409C180.314 393.614 180.729 394.034 180.729 394.636C180.729 395.386 179.933 396 178.683 396C177.587 396 176.899 395.528 176.661 394.591L175.388 394.909C175.7 396.392 176.922 397.182 178.706 397.182C180.734 397.182 182.115 396.074 182.115 394.568C182.115 393.352 181.354 392.585 179.797 392.205L178.501 391.886C177.467 391.631 177.001 391.284 177.001 390.614C177.001 389.864 177.797 389.318 178.865 389.318C180.036 389.318 180.518 389.966 180.751 390.568L181.956 390.227ZM188.634 400.273H189.974V395.659H190.088C190.384 396.136 190.952 397.182 192.634 397.182C194.815 397.182 196.338 395.432 196.338 392.659C196.338 389.909 194.815 388.159 192.611 388.159C190.906 388.159 190.384 389.205 190.088 389.659H189.929V388.273H188.634V400.273ZM189.952 392.636C189.952 390.682 190.815 389.364 192.452 389.364C194.156 389.364 194.997 390.795 194.997 392.636C194.997 394.5 194.134 395.977 192.452 395.977C190.838 395.977 189.952 394.614 189.952 392.636ZM202.043 397.182C203.815 397.182 205.111 396.295 205.52 394.977L204.224 394.614C203.884 395.523 203.094 395.977 202.043 395.977C200.469 395.977 199.384 394.96 199.321 393.091H205.656V392.523C205.656 389.273 203.724 388.159 201.906 388.159C199.543 388.159 197.974 390.023 197.974 392.705C197.974 395.386 199.52 397.182 202.043 397.182ZM199.321 391.932C199.412 390.574 200.372 389.364 201.906 389.364C203.361 389.364 204.293 390.455 204.293 391.932H199.321ZM207.696 397H209.037V391.477C209.037 390.295 209.969 389.432 211.241 389.432C211.599 389.432 211.969 389.5 212.06 389.523V388.159C211.906 388.148 211.554 388.136 211.355 388.136C210.31 388.136 209.401 388.727 209.082 389.591H208.991V388.273H207.696V397ZM219.831 390.227C219.411 388.989 218.467 388.159 216.74 388.159C214.899 388.159 213.536 389.205 213.536 390.682C213.536 391.886 214.251 392.693 215.854 393.068L217.308 393.409C218.189 393.614 218.604 394.034 218.604 394.636C218.604 395.386 217.808 396 216.558 396C215.462 396 214.774 395.528 214.536 394.591L213.263 394.909C213.575 396.392 214.797 397.182 216.581 397.182C218.609 397.182 219.99 396.074 219.99 394.568C219.99 393.352 219.229 392.585 217.672 392.205L216.376 391.886C215.342 391.631 214.876 391.284 214.876 390.614C214.876 389.864 215.672 389.318 216.74 389.318C217.911 389.318 218.393 389.966 218.626 390.568L219.831 390.227ZM225.554 397.182C227.918 397.182 229.509 395.386 229.509 392.682C229.509 389.955 227.918 388.159 225.554 388.159C223.19 388.159 221.599 389.955 221.599 392.682C221.599 395.386 223.19 397.182 225.554 397.182ZM225.554 395.977C223.759 395.977 222.94 394.432 222.94 392.682C222.94 390.932 223.759 389.364 225.554 389.364C227.349 389.364 228.168 390.932 228.168 392.682C228.168 394.432 227.349 395.977 225.554 395.977ZM232.896 391.75C232.896 390.227 233.839 389.364 235.124 389.364C236.368 389.364 237.124 390.176 237.124 391.545V397H238.464V391.455C238.464 389.227 237.277 388.159 235.51 388.159C234.192 388.159 233.374 388.75 232.964 389.636H232.851V388.273H231.555V397H232.896V391.75ZM242.256 391.75C242.256 390.227 243.199 389.364 244.483 389.364C245.727 389.364 246.483 390.176 246.483 391.545V397H247.824V391.455C247.824 389.227 246.636 388.159 244.869 388.159C243.551 388.159 242.733 388.75 242.324 389.636H242.21V388.273H240.915V397H242.256V391.75ZM253.933 397.182C255.706 397.182 257.001 396.295 257.411 394.977L256.115 394.614C255.774 395.523 254.984 395.977 253.933 395.977C252.359 395.977 251.274 394.96 251.212 393.091H257.547V392.523C257.547 389.273 255.615 388.159 253.797 388.159C251.433 388.159 249.865 390.023 249.865 392.705C249.865 395.386 251.411 397.182 253.933 397.182ZM251.212 391.932C251.303 390.574 252.263 389.364 253.797 389.364C255.251 389.364 256.183 390.455 256.183 391.932H251.212ZM265.768 390.227C265.348 388.989 264.405 388.159 262.678 388.159C260.837 388.159 259.473 389.205 259.473 390.682C259.473 391.886 260.189 392.693 261.791 393.068L263.246 393.409C264.126 393.614 264.541 394.034 264.541 394.636C264.541 395.386 263.746 396 262.496 396C261.399 396 260.712 395.528 260.473 394.591L259.2 394.909C259.513 396.392 260.734 397.182 262.518 397.182C264.547 397.182 265.928 396.074 265.928 394.568C265.928 393.352 265.166 392.585 263.609 392.205L262.314 391.886C261.28 391.631 260.814 391.284 260.814 390.614C260.814 389.864 261.609 389.318 262.678 389.318C263.848 389.318 264.331 389.966 264.564 390.568L265.768 390.227ZM279.741 400.273V388.273H278.446V389.659H278.287C277.991 389.205 277.469 388.159 275.764 388.159C273.56 388.159 272.037 389.909 272.037 392.659C272.037 395.432 273.56 397.182 275.741 397.182C277.423 397.182 277.991 396.136 278.287 395.659H278.401V400.273H279.741ZM278.423 392.636C278.423 394.614 277.537 395.977 275.923 395.977C274.241 395.977 273.378 394.5 273.378 392.636C273.378 390.795 274.219 389.364 275.923 389.364C277.56 389.364 278.423 390.682 278.423 392.636ZM287.696 393.432C287.696 395.068 286.446 395.818 285.446 395.818C284.332 395.818 283.537 395 283.537 393.727V388.273H282.196V393.818C282.196 396.045 283.378 397.114 285.014 397.114C286.332 397.114 287.196 396.409 287.605 395.523H287.696V397H289.037V388.273H287.696V393.432ZM291.493 397H292.834V388.273H291.493V397ZM292.175 386.818C292.697 386.818 293.129 386.409 293.129 385.909C293.129 385.409 292.697 385 292.175 385C291.652 385 291.22 385.409 291.22 385.909C291.22 386.409 291.652 386.818 292.175 386.818ZM303.335 397.182C305.699 397.182 307.29 395.386 307.29 392.682C307.29 389.955 305.699 388.159 303.335 388.159C300.972 388.159 299.381 389.955 299.381 392.682C299.381 395.386 300.972 397.182 303.335 397.182ZM303.335 395.977C301.54 395.977 300.722 394.432 300.722 392.682C300.722 390.932 301.54 389.364 303.335 389.364C305.131 389.364 305.949 390.932 305.949 392.682C305.949 394.432 305.131 395.977 303.335 395.977ZM310.678 391.75C310.678 390.227 311.621 389.364 312.905 389.364C314.149 389.364 314.905 390.176 314.905 391.545V397H316.246V391.455C316.246 389.227 315.058 388.159 313.291 388.159C311.973 388.159 311.155 388.75 310.746 389.636H310.632V388.273H309.337V397H310.678V391.75ZM322.491 388.273H320.628V386.182H319.287V388.273H317.969V389.409H319.287V394.864C319.287 396.386 320.514 397.114 321.651 397.114C322.151 397.114 322.469 397.023 322.651 396.955L322.378 395.75C322.264 395.773 322.082 395.818 321.787 395.818C321.196 395.818 320.628 395.636 320.628 394.5V389.409H322.491V388.273ZM44.8864 417.182C46.6591 417.182 47.9545 416.295 48.3636 414.977L47.0682 414.614C46.7273 415.523 45.9375 415.977 44.8864 415.977C43.3125 415.977 42.2273 414.96 42.1648 413.091H48.5V412.523C48.5 409.273 46.5682 408.159 44.75 408.159C42.3864 408.159 40.8182 410.023 40.8182 412.705C40.8182 415.386 42.3636 417.182 44.8864 417.182ZM42.1648 411.932C42.2557 410.574 43.2159 409.364 44.75 409.364C46.2045 409.364 47.1364 410.455 47.1364 411.932H42.1648ZM54.4261 408.273H52.4716V407.386C52.4716 406.523 52.8352 406.068 53.7216 406.068C54.108 406.068 54.3352 406.159 54.4716 406.205L54.858 405.045C54.6534 404.955 54.2443 404.818 53.5852 404.818C52.3352 404.818 51.1307 405.568 51.1307 407.068V408.273H49.7216V409.409H51.1307V417H52.4716V409.409H54.4261V408.273ZM60.1918 408.273H58.2372V407.386C58.2372 406.523 58.6009 406.068 59.4872 406.068C59.8736 406.068 60.1009 406.159 60.2372 406.205L60.6236 405.045C60.419 404.955 60.0099 404.818 59.3509 404.818C58.1009 404.818 56.8963 405.568 56.8963 407.068V408.273H55.4872V409.409H56.8963V417H58.2372V409.409H60.1918V408.273ZM65.3707 417.182C67.1435 417.182 68.4389 416.295 68.848 414.977L67.5526 414.614C67.2116 415.523 66.4219 415.977 65.3707 415.977C63.7969 415.977 62.7116 414.96 62.6491 413.091H68.9844V412.523C68.9844 409.273 67.0526 408.159 65.2344 408.159C62.8707 408.159 61.3026 410.023 61.3026 412.705C61.3026 415.386 62.848 417.182 65.3707 417.182ZM62.6491 411.932C62.7401 410.574 63.7003 409.364 65.2344 409.364C66.6889 409.364 67.6207 410.455 67.6207 411.932H62.6491ZM74.5696 417.182C76.5014 417.182 77.7741 416 78.0014 414.455H76.6605C76.4105 415.409 75.6151 415.977 74.5696 415.977C72.9787 415.977 71.956 414.659 71.956 412.636C71.956 410.659 73.0014 409.364 74.5696 409.364C75.7514 409.364 76.456 410.091 76.6605 410.886H78.0014C77.7741 409.25 76.3878 408.159 74.5469 408.159C72.1832 408.159 70.6151 410.023 70.6151 412.682C70.6151 415.295 72.1151 417.182 74.5696 417.182ZM83.7571 408.273H81.8935V406.182H80.5526V408.273H79.2344V409.409H80.5526V414.864C80.5526 416.386 81.7798 417.114 82.9162 417.114C83.4162 417.114 83.7344 417.023 83.9162 416.955L83.6435 415.75C83.5298 415.773 83.348 415.818 83.0526 415.818C82.4616 415.818 81.8935 415.636 81.8935 414.5V409.409H83.7571V408.273ZM85.7741 417H87.1151V408.273H85.7741V417ZM86.456 406.818C86.9787 406.818 87.4105 406.409 87.4105 405.909C87.4105 405.409 86.9787 405 86.456 405C85.9332 405 85.5014 405.409 85.5014 405.909C85.5014 406.409 85.9332 406.818 86.456 406.818ZM96.7074 408.273H95.2528L92.8438 415.227H92.7528L90.3438 408.273H88.8892L92.1165 417H93.4801L96.7074 408.273ZM101.824 417.182C103.597 417.182 104.892 416.295 105.301 414.977L104.006 414.614C103.665 415.523 102.875 415.977 101.824 415.977C100.25 415.977 99.1648 414.96 99.1023 413.091H105.438V412.523C105.438 409.273 103.506 408.159 101.688 408.159C99.3239 408.159 97.7557 410.023 97.7557 412.705C97.7557 415.386 99.3011 417.182 101.824 417.182ZM99.1023 411.932C99.1932 410.574 100.153 409.364 101.688 409.364C103.142 409.364 104.074 410.455 104.074 411.932H99.1023ZM107.477 417H108.818V411.545C108.818 410.267 109.75 409.364 110.795 409.364C111.812 409.364 112.523 410.028 112.523 411.023V417H113.886V411.318C113.886 410.193 114.591 409.364 115.818 409.364C116.773 409.364 117.591 409.869 117.591 411.159V417H118.932V411.159C118.932 409.108 117.83 408.159 116.273 408.159C115.023 408.159 114.108 408.733 113.659 409.636H113.568C113.136 408.705 112.375 408.159 111.227 408.159C110.091 408.159 109.25 408.705 108.886 409.636H108.773V408.273H107.477V417ZM125.043 417.182C126.815 417.182 128.111 416.295 128.52 414.977L127.224 414.614C126.884 415.523 126.094 415.977 125.043 415.977C123.469 415.977 122.384 414.96 122.321 413.091H128.656V412.523C128.656 409.273 126.724 408.159 124.906 408.159C122.543 408.159 120.974 410.023 120.974 412.705C120.974 415.386 122.52 417.182 125.043 417.182ZM122.321 411.932C122.412 410.574 123.372 409.364 124.906 409.364C126.361 409.364 127.293 410.455 127.293 411.932H122.321ZM132.037 411.75C132.037 410.227 132.98 409.364 134.264 409.364C135.509 409.364 136.264 410.176 136.264 411.545V417H137.605V411.455C137.605 409.227 136.418 408.159 134.651 408.159C133.332 408.159 132.514 408.75 132.105 409.636H131.991V408.273H130.696V417H132.037V411.75ZM143.851 408.273H141.987V406.182H140.646V408.273H139.328V409.409H140.646V414.864C140.646 416.386 141.874 417.114 143.01 417.114C143.51 417.114 143.828 417.023 144.01 416.955L143.737 415.75C143.624 415.773 143.442 415.818 143.146 415.818C142.555 415.818 141.987 415.636 141.987 414.5V409.409H143.851V408.273ZM150.368 420.273H151.709V415.659H151.822C152.118 416.136 152.686 417.182 154.368 417.182C156.55 417.182 158.072 415.432 158.072 412.659C158.072 409.909 156.55 408.159 154.345 408.159C152.641 408.159 152.118 409.205 151.822 409.659H151.663V408.273H150.368V420.273ZM151.686 412.636C151.686 410.682 152.55 409.364 154.186 409.364C155.891 409.364 156.732 410.795 156.732 412.636C156.732 414.5 155.868 415.977 154.186 415.977C152.572 415.977 151.686 414.614 151.686 412.636ZM162.686 417.205C164.209 417.205 165.004 416.386 165.277 415.818H165.345V417H166.686V411.25C166.686 408.477 164.572 408.159 163.459 408.159C162.141 408.159 160.641 408.614 159.959 410.205L161.232 410.659C161.527 410.023 162.226 409.341 163.504 409.341C164.737 409.341 165.345 409.994 165.345 411.114V411.159C165.345 411.807 164.686 411.75 163.095 411.955C161.476 412.165 159.709 412.523 159.709 414.523C159.709 416.227 161.027 417.205 162.686 417.205ZM162.891 416C161.822 416 161.05 415.523 161.05 414.591C161.05 413.568 161.982 413.25 163.027 413.114C163.595 413.045 165.118 412.886 165.345 412.614V413.841C165.345 414.932 164.482 416 162.891 416ZM169.134 417H170.474V411.477C170.474 410.295 171.406 409.432 172.679 409.432C173.037 409.432 173.406 409.5 173.497 409.523V408.159C173.344 408.148 172.991 408.136 172.793 408.136C171.747 408.136 170.838 408.727 170.52 409.591H170.429V408.273H169.134V417ZM179.429 408.273H177.565V406.182H176.224V408.273H174.906V409.409H176.224V414.864C176.224 416.386 177.452 417.114 178.588 417.114C179.088 417.114 179.406 417.023 179.588 416.955L179.315 415.75C179.202 415.773 179.02 415.818 178.724 415.818C178.134 415.818 177.565 415.636 177.565 414.5V409.409H179.429V408.273ZM181.446 417H182.787V408.273H181.446V417ZM182.128 406.818C182.651 406.818 183.082 406.409 183.082 405.909C183.082 405.409 182.651 405 182.128 405C181.605 405 181.173 405.409 181.173 405.909C181.173 406.409 181.605 406.818 182.128 406.818ZM188.788 417.182C190.72 417.182 191.993 416 192.22 414.455H190.879C190.629 415.409 189.834 415.977 188.788 415.977C187.197 415.977 186.175 414.659 186.175 412.636C186.175 410.659 187.22 409.364 188.788 409.364C189.97 409.364 190.675 410.091 190.879 410.886H192.22C191.993 409.25 190.607 408.159 188.766 408.159C186.402 408.159 184.834 410.023 184.834 412.682C184.834 415.295 186.334 417.182 188.788 417.182ZM194.18 417H195.521V408.273H194.18V417ZM194.862 406.818C195.385 406.818 195.817 406.409 195.817 405.909C195.817 405.409 195.385 405 194.862 405C194.339 405 193.908 405.409 193.908 405.909C193.908 406.409 194.339 406.818 194.862 406.818ZM197.977 420.273H199.318V415.659H199.432C199.727 416.136 200.295 417.182 201.977 417.182C204.159 417.182 205.682 415.432 205.682 412.659C205.682 409.909 204.159 408.159 201.955 408.159C200.25 408.159 199.727 409.205 199.432 409.659H199.273V408.273H197.977V420.273ZM199.295 412.636C199.295 410.682 200.159 409.364 201.795 409.364C203.5 409.364 204.341 410.795 204.341 412.636C204.341 414.5 203.477 415.977 201.795 415.977C200.182 415.977 199.295 414.614 199.295 412.636ZM211.386 417.182C213.159 417.182 214.455 416.295 214.864 414.977L213.568 414.614C213.227 415.523 212.438 415.977 211.386 415.977C209.812 415.977 208.727 414.96 208.665 413.091H215V412.523C215 409.273 213.068 408.159 211.25 408.159C208.886 408.159 207.318 410.023 207.318 412.705C207.318 415.386 208.864 417.182 211.386 417.182ZM208.665 411.932C208.756 410.574 209.716 409.364 211.25 409.364C212.705 409.364 213.636 410.455 213.636 411.932H208.665ZM210.568 407.091H211.75L213.523 404.455H211.955L210.568 407.091ZM223.222 410.227C222.801 408.989 221.858 408.159 220.131 408.159C218.29 408.159 216.926 409.205 216.926 410.682C216.926 411.886 217.642 412.693 219.244 413.068L220.699 413.409C221.58 413.614 221.994 414.034 221.994 414.636C221.994 415.386 221.199 416 219.949 416C218.852 416 218.165 415.528 217.926 414.591L216.653 414.909C216.966 416.392 218.188 417.182 219.972 417.182C222 417.182 223.381 416.074 223.381 414.568C223.381 413.352 222.619 412.585 221.062 412.205L219.767 411.886C218.733 411.631 218.267 411.284 218.267 410.614C218.267 409.864 219.062 409.318 220.131 409.318C221.301 409.318 221.784 409.966 222.017 410.568L223.222 410.227ZM232.467 417.205C233.99 417.205 234.786 416.386 235.058 415.818H235.126V417H236.467V411.25C236.467 408.477 234.354 408.159 233.24 408.159C231.922 408.159 230.422 408.614 229.74 410.205L231.013 410.659C231.308 410.023 232.007 409.341 233.286 409.341C234.518 409.341 235.126 409.994 235.126 411.114V411.159C235.126 411.807 234.467 411.75 232.876 411.955C231.257 412.165 229.49 412.523 229.49 414.523C229.49 416.227 230.808 417.205 232.467 417.205ZM232.672 416C231.604 416 230.831 415.523 230.831 414.591C230.831 413.568 231.763 413.25 232.808 413.114C233.376 413.045 234.899 412.886 235.126 412.614V413.841C235.126 414.932 234.263 416 232.672 416ZM232.763 407.091H233.945L232.558 404.455H230.99L232.763 407.091ZM244.756 405.364H243.415V417H244.756V405.364ZM248.371 405.364H247.121V409.364H248.371V405.364ZM254.418 417.182C256.19 417.182 257.486 416.295 257.895 414.977L256.599 414.614C256.259 415.523 255.469 415.977 254.418 415.977C252.844 415.977 251.759 414.96 251.696 413.091H258.031V412.523C258.031 409.273 256.099 408.159 254.281 408.159C251.918 408.159 250.349 410.023 250.349 412.705C250.349 415.386 251.895 417.182 254.418 417.182ZM251.696 411.932C251.787 410.574 252.747 409.364 254.281 409.364C255.736 409.364 256.668 410.455 256.668 411.932H251.696ZM253.599 407.091H254.781L256.554 404.455H254.986L253.599 407.091ZM263.866 408.273H262.003V406.182H260.662V408.273H259.344V409.409H260.662V414.864C260.662 416.386 261.889 417.114 263.026 417.114C263.526 417.114 263.844 417.023 264.026 416.955L263.753 415.75C263.639 415.773 263.457 415.818 263.162 415.818C262.571 415.818 262.003 415.636 262.003 414.5V409.409H263.866V408.273ZM271.384 413.432C271.384 415.068 270.134 415.818 269.134 415.818C268.02 415.818 267.224 415 267.224 413.727V408.273H265.884V413.818C265.884 416.045 267.065 417.114 268.702 417.114C270.02 417.114 270.884 416.409 271.293 415.523H271.384V417H272.724V408.273H271.384V413.432ZM278.476 417.182C280.158 417.182 280.726 416.136 281.021 415.659H281.18V417H282.476V405.364H281.135V409.659H281.021C280.726 409.205 280.203 408.159 278.499 408.159C276.294 408.159 274.771 409.909 274.771 412.659C274.771 415.432 276.294 417.182 278.476 417.182ZM278.658 415.977C276.976 415.977 276.112 414.5 276.112 412.636C276.112 410.795 276.953 409.364 278.658 409.364C280.294 409.364 281.158 410.682 281.158 412.636C281.158 414.614 280.271 415.977 278.658 415.977ZM288.777 417.182C290.55 417.182 291.845 416.295 292.254 414.977L290.959 414.614C290.618 415.523 289.828 415.977 288.777 415.977C287.203 415.977 286.118 414.96 286.055 413.091H292.391V412.523C292.391 409.273 290.459 408.159 288.641 408.159C286.277 408.159 284.709 410.023 284.709 412.705C284.709 415.386 286.254 417.182 288.777 417.182ZM286.055 411.932C286.146 410.574 287.107 409.364 288.641 409.364C290.095 409.364 291.027 410.455 291.027 411.932H286.055ZM295.408 417.091C295.97 417.091 296.43 416.631 296.43 416.068C296.43 415.506 295.97 415.045 295.408 415.045C294.845 415.045 294.385 415.506 294.385 416.068C294.385 416.631 294.845 417.091 295.408 417.091Z" fill="#566380"/>
<path d="M223.787 312.912H226.989V322H228.222V312.912H231.424V311.818H223.787V312.912ZM233.744 311.818H232.452L236.19 322H237.463L241.202 311.818H239.909L236.886 320.389H236.767L233.744 311.818ZM242.33 322L243.354 319.116H247.471L248.495 322H249.788L246.049 311.818H244.776L241.038 322H242.33ZM243.742 318.023L245.373 313.429H245.452L247.083 318.023H243.742ZM256.325 317.406C256.325 316.074 257.151 315.318 258.274 315.318C259.363 315.318 260.024 316.029 260.024 317.227V322H261.197V317.148C261.197 315.199 260.158 314.264 258.612 314.264C257.459 314.264 256.743 314.781 256.385 315.557H256.286V314.364H255.152V322H256.325V317.406ZM266.444 322.159C268.512 322.159 269.904 320.588 269.904 318.222C269.904 315.835 268.512 314.264 266.444 314.264C264.376 314.264 262.983 315.835 262.983 318.222C262.983 320.588 264.376 322.159 266.444 322.159ZM266.444 321.105C264.873 321.105 264.157 319.753 264.157 318.222C264.157 316.69 264.873 315.318 266.444 315.318C268.015 315.318 268.731 316.69 268.731 318.222C268.731 319.753 268.015 321.105 266.444 321.105ZM272.868 317.406C272.868 316.074 273.694 315.318 274.817 315.318C275.906 315.318 276.567 316.029 276.567 317.227V322H277.74V317.148C277.74 315.199 276.701 314.264 275.155 314.264C274.002 314.264 273.286 314.781 272.928 315.557H272.828V314.364H271.695V322H272.868V317.406ZM283.822 322H284.995V314.364H283.822V322ZM284.419 313.091C284.876 313.091 285.254 312.733 285.254 312.295C285.254 311.858 284.876 311.5 284.419 311.5C283.961 311.5 283.583 311.858 283.583 312.295C283.583 312.733 283.961 313.091 284.419 313.091ZM288.317 317.406C288.317 316.074 289.143 315.318 290.266 315.318C291.355 315.318 292.016 316.029 292.016 317.227V322H293.19V317.148C293.19 315.199 292.151 314.264 290.604 314.264C289.451 314.264 288.735 314.781 288.377 315.557H288.278V314.364H287.144V322H288.317V317.406ZM298.436 322.159C300.126 322.159 301.24 321.125 301.439 319.773H300.265C300.047 320.608 299.351 321.105 298.436 321.105C297.044 321.105 296.149 319.952 296.149 318.182C296.149 316.452 297.064 315.318 298.436 315.318C299.47 315.318 300.086 315.955 300.265 316.651H301.439C301.24 315.219 300.027 314.264 298.416 314.264C296.348 314.264 294.976 315.895 294.976 318.222C294.976 320.509 296.288 322.159 298.436 322.159ZM304.327 311.818H303.154V322H304.327V311.818ZM311.289 318.878C311.289 320.31 310.195 320.966 309.32 320.966C308.346 320.966 307.65 320.25 307.65 319.136V314.364H306.476V319.216C306.476 321.165 307.51 322.099 308.942 322.099C310.096 322.099 310.851 321.483 311.209 320.707H311.289V322H312.462V314.364H311.289V318.878ZM320.02 316.074C319.652 314.99 318.827 314.264 317.316 314.264C315.705 314.264 314.512 315.179 314.512 316.472C314.512 317.526 315.138 318.232 316.54 318.56L317.813 318.858C318.583 319.037 318.946 319.405 318.946 319.932C318.946 320.588 318.25 321.125 317.156 321.125C316.197 321.125 315.595 320.712 315.387 319.892L314.273 320.17C314.546 321.468 315.615 322.159 317.176 322.159C318.951 322.159 320.159 321.19 320.159 319.872C320.159 318.808 319.493 318.137 318.131 317.804L316.997 317.526C316.093 317.302 315.685 316.999 315.685 316.412C315.685 315.756 316.381 315.278 317.316 315.278C318.34 315.278 318.762 315.845 318.966 316.372L320.02 316.074ZM325.127 322.159C326.678 322.159 327.812 321.384 328.17 320.23L327.036 319.912C326.738 320.707 326.047 321.105 325.127 321.105C323.75 321.105 322.8 320.215 322.746 318.58H328.289V318.082C328.289 315.239 326.599 314.264 325.008 314.264C322.94 314.264 321.567 315.895 321.567 318.241C321.567 320.588 322.92 322.159 325.127 322.159ZM322.746 317.565C322.825 316.377 323.665 315.318 325.008 315.318C326.281 315.318 327.096 316.273 327.096 317.565H322.746Z" fill="#566380"/>
<path d="M40.6364 169.131H44.233V179H46.3239V169.131H49.9205V167.364H40.6364V169.131ZM54.1605 179.17C56.7173 179.17 58.3423 177.369 58.3423 174.67C58.3423 171.966 56.7173 170.159 54.1605 170.159C51.6037 170.159 49.9787 171.966 49.9787 174.67C49.9787 177.369 51.6037 179.17 54.1605 179.17ZM54.1719 177.523C52.7571 177.523 52.0639 176.261 52.0639 174.665C52.0639 173.068 52.7571 171.79 54.1719 171.79C55.5639 171.79 56.2571 173.068 56.2571 174.665C56.2571 176.261 55.5639 177.523 54.1719 177.523ZM64.446 170.273H62.7244V168.182H60.6676V170.273H59.429V171.864H60.6676V176.716C60.6562 178.358 61.8494 179.165 63.3949 179.119C63.9801 179.102 64.3835 178.989 64.6051 178.915L64.2585 177.307C64.1449 177.335 63.9119 177.386 63.6562 177.386C63.1392 177.386 62.7244 177.205 62.7244 176.375V171.864H64.446V170.273ZM68.6776 179.176C70.0469 179.176 70.8651 178.534 71.2401 177.801H71.3082V179H73.2855V173.159C73.2855 170.852 71.4048 170.159 69.7401 170.159C67.9048 170.159 66.4957 170.977 66.0412 172.568L67.9616 172.841C68.1662 172.244 68.7457 171.733 69.7514 171.733C70.706 171.733 71.2287 172.222 71.2287 173.08V173.114C71.2287 173.705 70.6094 173.733 69.0696 173.898C67.3764 174.08 65.7571 174.585 65.7571 176.551C65.7571 178.267 67.0128 179.176 68.6776 179.176ZM69.2116 177.665C68.3537 177.665 67.7401 177.273 67.7401 176.517C67.7401 175.727 68.4276 175.398 69.348 175.267C69.8878 175.193 70.9673 175.057 71.2344 174.841V175.869C71.2344 176.841 70.4503 177.665 69.2116 177.665ZM77.4105 167.364H75.3537V179H77.4105V167.364ZM83.4943 182.273H85.5511V177.625H85.6364C85.9602 178.261 86.6364 179.153 88.1364 179.153C90.1932 179.153 91.733 177.523 91.733 174.648C91.733 171.739 90.1477 170.159 88.1307 170.159C86.5909 170.159 85.9489 171.085 85.6364 171.716H85.517V170.273H83.4943V182.273ZM85.5114 174.636C85.5114 172.943 86.2386 171.847 87.5625 171.847C88.9318 171.847 89.6364 173.011 89.6364 174.636C89.6364 176.273 88.9205 177.466 87.5625 177.466C86.25 177.466 85.5114 176.33 85.5114 174.636ZM96.0057 179.176C97.375 179.176 98.1932 178.534 98.5682 177.801H98.6364V179H100.614V173.159C100.614 170.852 98.733 170.159 97.0682 170.159C95.233 170.159 93.8239 170.977 93.3693 172.568L95.2898 172.841C95.4943 172.244 96.0739 171.733 97.0795 171.733C98.0341 171.733 98.5568 172.222 98.5568 173.08V173.114C98.5568 173.705 97.9375 173.733 96.3977 173.898C94.7045 174.08 93.0852 174.585 93.0852 176.551C93.0852 178.267 94.3409 179.176 96.0057 179.176ZM96.5398 177.665C95.6818 177.665 95.0682 177.273 95.0682 176.517C95.0682 175.727 95.7557 175.398 96.6761 175.267C97.2159 175.193 98.2955 175.057 98.5625 174.841V175.869C98.5625 176.841 97.7784 177.665 96.5398 177.665ZM102.682 179H104.739V173.869C104.739 172.761 105.574 171.977 106.705 171.977C107.051 171.977 107.483 172.04 107.659 172.097V170.205C107.472 170.17 107.148 170.148 106.92 170.148C105.92 170.148 105.085 170.716 104.767 171.727H104.676V170.273H102.682V179ZM112.994 182.273H115.051V177.625H115.136C115.46 178.261 116.136 179.153 117.636 179.153C119.693 179.153 121.233 177.523 121.233 174.648C121.233 171.739 119.648 170.159 117.631 170.159C116.091 170.159 115.449 171.085 115.136 171.716H115.017V170.273H112.994V182.273ZM115.011 174.636C115.011 172.943 115.739 171.847 117.062 171.847C118.432 171.847 119.136 173.011 119.136 174.636C119.136 176.273 118.42 177.466 117.062 177.466C115.75 177.466 115.011 176.33 115.011 174.636ZM125.506 179.176C126.875 179.176 127.693 178.534 128.068 177.801H128.136V179H130.114V173.159C130.114 170.852 128.233 170.159 126.568 170.159C124.733 170.159 123.324 170.977 122.869 172.568L124.79 172.841C124.994 172.244 125.574 171.733 126.58 171.733C127.534 171.733 128.057 172.222 128.057 173.08V173.114C128.057 173.705 127.438 173.733 125.898 173.898C124.205 174.08 122.585 174.585 122.585 176.551C122.585 178.267 123.841 179.176 125.506 179.176ZM126.04 177.665C125.182 177.665 124.568 177.273 124.568 176.517C124.568 175.727 125.256 175.398 126.176 175.267C126.716 175.193 127.795 175.057 128.062 174.841V175.869C128.062 176.841 127.278 177.665 126.04 177.665ZM132.182 179H134.239V173.869C134.239 172.761 135.074 171.977 136.205 171.977C136.551 171.977 136.983 172.04 137.159 172.097V170.205C136.972 170.17 136.648 170.148 136.42 170.148C135.42 170.148 134.585 170.716 134.267 171.727H134.176V170.273H132.182V179ZM143.352 170.273H141.631V168.182H139.574V170.273H138.335V171.864H139.574V176.716C139.562 178.358 140.756 179.165 142.301 179.119C142.886 179.102 143.29 178.989 143.511 178.915L143.165 177.307C143.051 177.335 142.818 177.386 142.562 177.386C142.045 177.386 141.631 177.205 141.631 176.375V171.864H143.352V170.273ZM145.072 179H147.129V170.273H145.072V179ZM146.107 169.034C146.76 169.034 147.294 168.534 147.294 167.92C147.294 167.301 146.76 166.801 146.107 166.801C145.447 166.801 144.913 167.301 144.913 167.92C144.913 168.534 145.447 169.034 146.107 169.034ZM153.051 179.17C155.244 179.17 156.642 177.869 156.79 176.017H154.824C154.648 176.955 153.972 177.494 153.068 177.494C151.784 177.494 150.955 176.42 150.955 174.636C150.955 172.875 151.801 171.818 153.068 171.818C154.057 171.818 154.665 172.455 154.824 173.295H156.79C156.648 171.403 155.17 170.159 153.04 170.159C150.483 170.159 148.869 172.006 148.869 174.67C148.869 177.312 150.443 179.17 153.051 179.17ZM158.479 179H160.536V170.273H158.479V179ZM159.513 169.034C160.166 169.034 160.7 168.534 160.7 167.92C160.7 167.301 160.166 166.801 159.513 166.801C158.854 166.801 158.32 167.301 158.32 167.92C158.32 168.534 158.854 169.034 159.513 169.034ZM162.651 182.273H164.707V177.625H164.793C165.116 178.261 165.793 179.153 167.293 179.153C169.349 179.153 170.889 177.523 170.889 174.648C170.889 171.739 169.304 170.159 167.287 170.159C165.747 170.159 165.105 171.085 164.793 171.716H164.673V170.273H162.651V182.273ZM164.668 174.636C164.668 172.943 165.395 171.847 166.719 171.847C168.088 171.847 168.793 173.011 168.793 174.636C168.793 176.273 168.077 177.466 166.719 177.466C165.406 177.466 164.668 176.33 164.668 174.636ZM175.162 179.176C176.531 179.176 177.349 178.534 177.724 177.801H177.793V179H179.77V173.159C179.77 170.852 177.889 170.159 176.224 170.159C174.389 170.159 172.98 170.977 172.526 172.568L174.446 172.841C174.651 172.244 175.23 171.733 176.236 171.733C177.19 171.733 177.713 172.222 177.713 173.08V173.114C177.713 173.705 177.094 173.733 175.554 173.898C173.861 174.08 172.241 174.585 172.241 176.551C172.241 178.267 173.497 179.176 175.162 179.176ZM175.696 177.665C174.838 177.665 174.224 177.273 174.224 176.517C174.224 175.727 174.912 175.398 175.832 175.267C176.372 175.193 177.452 175.057 177.719 174.841V175.869C177.719 176.841 176.935 177.665 175.696 177.665ZM183.895 173.886C183.895 172.625 184.656 171.898 185.741 171.898C186.804 171.898 187.44 172.597 187.44 173.761V179H189.497V173.443C189.503 171.352 188.31 170.159 186.509 170.159C185.202 170.159 184.304 170.784 183.906 171.756H183.804V170.273H181.838V179H183.895V173.886ZM195.946 170.273H194.224V168.182H192.168V170.273H190.929V171.864H192.168V176.716C192.156 178.358 193.349 179.165 194.895 179.119C195.48 179.102 195.884 178.989 196.105 178.915L195.759 177.307C195.645 177.335 195.412 177.386 195.156 177.386C194.639 177.386 194.224 177.205 194.224 176.375V171.864H195.946V170.273Z" fill="black"/>
<path d="M54.144 280.852V283.79H49.308V299H45.668V283.79H40.832V280.852H54.144ZM63.1959 299.234C61.8092 299.234 60.5612 298.931 59.4519 298.324C58.3425 297.7 57.4672 296.825 56.8259 295.698C56.2019 294.571 55.8899 293.271 55.8899 291.798C55.8899 290.325 56.2105 289.025 56.8519 287.898C57.5105 286.771 58.4032 285.905 59.5299 285.298C60.6565 284.674 61.9132 284.362 63.2999 284.362C64.6865 284.362 65.9432 284.674 67.0699 285.298C68.1965 285.905 69.0805 286.771 69.7219 287.898C70.3805 289.025 70.7099 290.325 70.7099 291.798C70.7099 293.271 70.3719 294.571 69.6959 295.698C69.0372 296.825 68.1359 297.7 66.9919 298.324C65.8652 298.931 64.5999 299.234 63.1959 299.234ZM63.1959 296.062C63.8545 296.062 64.4699 295.906 65.0419 295.594C65.6312 295.265 66.0992 294.779 66.4459 294.138C66.7925 293.497 66.9659 292.717 66.9659 291.798C66.9659 290.429 66.6019 289.38 65.8739 288.652C65.1632 287.907 64.2879 287.534 63.2479 287.534C62.2079 287.534 61.3325 287.907 60.6219 288.652C59.9285 289.38 59.5819 290.429 59.5819 291.798C59.5819 293.167 59.9199 294.225 60.5959 294.97C61.2892 295.698 62.1559 296.062 63.1959 296.062ZM77.6179 287.586V294.554C77.6179 295.039 77.7306 295.395 77.9559 295.62C78.1986 295.828 78.5973 295.932 79.1519 295.932H80.8419V299H78.5539C75.4859 299 73.9519 297.509 73.9519 294.528V287.586H72.2359V284.596H73.9519V281.034H77.6179V284.596H80.8419V287.586H77.6179ZM82.524 291.746C82.524 290.29 82.81 288.999 83.382 287.872C83.9713 286.745 84.76 285.879 85.748 285.272C86.7533 284.665 87.8713 284.362 89.102 284.362C90.1767 284.362 91.1127 284.579 91.91 285.012C92.7247 285.445 93.3747 285.991 93.86 286.65V284.596H97.526V299H93.86V296.894C93.392 297.57 92.742 298.133 91.91 298.584C91.0953 299.017 90.1507 299.234 89.076 299.234C87.8627 299.234 86.7533 298.922 85.748 298.298C84.76 297.674 83.9713 296.799 83.382 295.672C82.81 294.528 82.524 293.219 82.524 291.746ZM93.86 291.798C93.86 290.914 93.6867 290.16 93.34 289.536C92.9933 288.895 92.5253 288.409 91.936 288.08C91.3467 287.733 90.714 287.56 90.038 287.56C89.362 287.56 88.738 287.725 88.166 288.054C87.594 288.383 87.126 288.869 86.762 289.51C86.4153 290.134 86.242 290.879 86.242 291.746C86.242 292.613 86.4153 293.375 86.762 294.034C87.126 294.675 87.594 295.169 88.166 295.516C88.7553 295.863 89.3793 296.036 90.038 296.036C90.714 296.036 91.3467 295.871 91.936 295.542C92.5253 295.195 92.9933 294.71 93.34 294.086C93.6867 293.445 93.86 292.682 93.86 291.798ZM104.721 279.76V299H101.081V279.76H104.721Z" fill="black"/>
<path d="M262.456 288.964C260.723 288.063 259.856 286.667 259.856 284.778C259.856 283.842 260.09 282.993 260.558 282.23C261.044 281.45 261.763 280.835 262.716 280.384C263.687 279.916 264.866 279.682 266.252 279.682C267.639 279.682 268.809 279.916 269.762 280.384C270.733 280.835 271.452 281.45 271.92 282.23C272.406 282.993 272.648 283.842 272.648 284.778C272.648 285.731 272.414 286.572 271.946 287.3C271.478 288.011 270.854 288.565 270.074 288.964C271.028 289.38 271.773 289.987 272.31 290.784C272.848 291.581 273.116 292.526 273.116 293.618C273.116 294.797 272.813 295.828 272.206 296.712C271.617 297.579 270.802 298.246 269.762 298.714C268.722 299.182 267.552 299.416 266.252 299.416C264.952 299.416 263.782 299.182 262.742 298.714C261.72 298.246 260.905 297.579 260.298 296.712C259.709 295.828 259.414 294.797 259.414 293.618C259.414 292.526 259.683 291.581 260.22 290.784C260.758 289.969 261.503 289.363 262.456 288.964ZM269.112 285.298C269.112 284.449 268.852 283.79 268.332 283.322C267.83 282.854 267.136 282.62 266.252 282.62C265.386 282.62 264.692 282.854 264.172 283.322C263.67 283.79 263.418 284.457 263.418 285.324C263.418 286.104 263.678 286.728 264.198 287.196C264.736 287.664 265.42 287.898 266.252 287.898C267.084 287.898 267.769 287.664 268.306 287.196C268.844 286.711 269.112 286.078 269.112 285.298ZM266.252 290.55C265.264 290.55 264.458 290.801 263.834 291.304C263.228 291.807 262.924 292.526 262.924 293.462C262.924 294.329 263.219 295.039 263.808 295.594C264.415 296.131 265.23 296.4 266.252 296.4C267.275 296.4 268.081 296.123 268.67 295.568C269.26 295.013 269.554 294.311 269.554 293.462C269.554 292.543 269.251 291.833 268.644 291.33C268.038 290.81 267.24 290.55 266.252 290.55ZM275.991 289.276C275.991 286.277 276.529 283.929 277.603 282.23C278.695 280.531 280.498 279.682 283.011 279.682C285.525 279.682 287.319 280.531 288.393 282.23C289.485 283.929 290.031 286.277 290.031 289.276C290.031 292.292 289.485 294.658 288.393 296.374C287.319 298.09 285.525 298.948 283.011 298.948C280.498 298.948 278.695 298.09 277.603 296.374C276.529 294.658 275.991 292.292 275.991 289.276ZM286.443 289.276C286.443 287.993 286.357 286.919 286.183 286.052C286.027 285.168 285.698 284.449 285.195 283.894C284.71 283.339 283.982 283.062 283.011 283.062C282.041 283.062 281.304 283.339 280.801 283.894C280.316 284.449 279.987 285.168 279.813 286.052C279.657 286.919 279.579 287.993 279.579 289.276C279.579 290.593 279.657 291.703 279.813 292.604C279.969 293.488 280.299 294.207 280.801 294.762C281.304 295.299 282.041 295.568 283.011 295.568C283.982 295.568 284.719 295.299 285.221 294.762C285.724 294.207 286.053 293.488 286.209 292.604C286.365 291.703 286.443 290.593 286.443 289.276ZM292.8 289.276C292.8 286.277 293.337 283.929 294.412 282.23C295.504 280.531 297.307 279.682 299.82 279.682C302.333 279.682 304.127 280.531 305.202 282.23C306.294 283.929 306.84 286.277 306.84 289.276C306.84 292.292 306.294 294.658 305.202 296.374C304.127 298.09 302.333 298.948 299.82 298.948C297.307 298.948 295.504 298.09 294.412 296.374C293.337 294.658 292.8 292.292 292.8 289.276ZM303.252 289.276C303.252 287.993 303.165 286.919 302.992 286.052C302.836 285.168 302.507 284.449 302.004 283.894C301.519 283.339 300.791 283.062 299.82 283.062C298.849 283.062 298.113 283.339 297.61 283.894C297.125 284.449 296.795 285.168 296.622 286.052C296.466 286.919 296.388 287.993 296.388 289.276C296.388 290.593 296.466 291.703 296.622 292.604C296.778 293.488 297.107 294.207 297.61 294.762C298.113 295.299 298.849 295.568 299.82 295.568C300.791 295.568 301.527 295.299 302.03 294.762C302.533 294.207 302.862 293.488 303.018 292.604C303.174 291.703 303.252 290.593 303.252 289.276ZM319.748 295.828C320.736 295.828 321.603 295.611 322.348 295.178C323.094 294.745 323.683 294.112 324.116 293.28H328.276C327.67 295.135 326.604 296.582 325.078 297.622C323.57 298.645 321.802 299.156 319.774 299.156C317.694 299.156 315.866 298.601 314.288 297.492C312.728 296.365 311.645 294.866 311.038 292.994H308.828V290.836H310.622C310.588 290.42 310.57 290.108 310.57 289.9C310.57 289.657 310.588 289.328 310.622 288.912H308.828V286.754H311.064C311.671 284.882 312.754 283.391 314.314 282.282C315.892 281.173 317.712 280.618 319.774 280.618C321.802 280.618 323.57 281.138 325.078 282.178C326.604 283.218 327.67 284.657 328.276 286.494H324.116C323.683 285.662 323.094 285.038 322.348 284.622C321.603 284.189 320.736 283.972 319.748 283.972C318.691 283.972 317.746 284.215 316.914 284.7C316.1 285.185 315.467 285.87 315.016 286.754H320.008V288.912H314.366C314.332 289.328 314.314 289.657 314.314 289.9C314.314 290.108 314.332 290.42 314.366 290.836H320.008V292.994H314.99C315.441 293.878 316.082 294.571 316.914 295.074C317.746 295.577 318.691 295.828 319.748 295.828Z" fill="black"/>
<rect x="191" y="456" width="138" height="52" rx="12" fill="#E1366A"/>
<path d="M214.537 481.718C214.537 480.494 214.819 479.396 215.383 478.424C215.959 477.452 216.733 476.696 217.705 476.156C218.689 475.604 219.763 475.328 220.927 475.328C222.259 475.328 223.441 475.658 224.473 476.318C225.517 476.966 226.273 477.89 226.741 479.09H224.275C223.951 478.43 223.501 477.938 222.925 477.614C222.349 477.29 221.683 477.128 220.927 477.128C220.099 477.128 219.361 477.314 218.713 477.686C218.065 478.058 217.555 478.592 217.183 479.288C216.823 479.984 216.643 480.794 216.643 481.718C216.643 482.642 216.823 483.452 217.183 484.148C217.555 484.844 218.065 485.384 218.713 485.768C219.361 486.14 220.099 486.326 220.927 486.326C221.683 486.326 222.349 486.164 222.925 485.84C223.501 485.516 223.951 485.024 224.275 484.364H226.741C226.273 485.564 225.517 486.488 224.473 487.136C223.441 487.784 222.259 488.108 220.927 488.108C219.751 488.108 218.677 487.838 217.705 487.298C216.733 486.746 215.959 485.984 215.383 485.012C214.819 484.04 214.537 482.942 214.537 481.718ZM229.467 475.49H231.699L229.809 479.774H228.369L229.467 475.49ZM242.592 482.798C242.592 483.17 242.568 483.506 242.52 483.806H234.942C235.002 484.598 235.296 485.234 235.824 485.714C236.352 486.194 237 486.434 237.768 486.434C238.872 486.434 239.652 485.972 240.108 485.048H242.322C242.022 485.96 241.476 486.71 240.684 487.298C239.904 487.874 238.932 488.162 237.768 488.162C236.82 488.162 235.968 487.952 235.212 487.532C234.468 487.1 233.88 486.5 233.448 485.732C233.028 484.952 232.818 484.052 232.818 483.032C232.818 482.012 233.022 481.118 233.43 480.35C233.85 479.57 234.432 478.97 235.176 478.55C235.932 478.13 236.796 477.92 237.768 477.92C238.704 477.92 239.538 478.124 240.27 478.532C241.002 478.94 241.572 479.516 241.98 480.26C242.388 480.992 242.592 481.838 242.592 482.798ZM240.45 482.15C240.438 481.394 240.168 480.788 239.64 480.332C239.112 479.876 238.458 479.648 237.678 479.648C236.97 479.648 236.364 479.876 235.86 480.332C235.356 480.776 235.056 481.382 234.96 482.15H240.45ZM248.212 488.162C247.432 488.162 246.73 488.024 246.106 487.748C245.494 487.46 245.008 487.076 244.648 486.596C244.288 486.104 244.096 485.558 244.072 484.958H246.196C246.232 485.378 246.43 485.732 246.79 486.02C247.162 486.296 247.624 486.434 248.176 486.434C248.752 486.434 249.196 486.326 249.508 486.11C249.832 485.882 249.994 485.594 249.994 485.246C249.994 484.874 249.814 484.598 249.454 484.418C249.106 484.238 248.548 484.04 247.78 483.824C247.036 483.62 246.43 483.422 245.962 483.23C245.494 483.038 245.086 482.744 244.738 482.348C244.402 481.952 244.234 481.43 244.234 480.782C244.234 480.254 244.39 479.774 244.702 479.342C245.014 478.898 245.458 478.55 246.034 478.298C246.622 478.046 247.294 477.92 248.05 477.92C249.178 477.92 250.084 478.208 250.768 478.784C251.464 479.348 251.836 480.122 251.884 481.106H249.832C249.796 480.662 249.616 480.308 249.292 480.044C248.968 479.78 248.53 479.648 247.978 479.648C247.438 479.648 247.024 479.75 246.736 479.954C246.448 480.158 246.304 480.428 246.304 480.764C246.304 481.028 246.4 481.25 246.592 481.43C246.784 481.61 247.018 481.754 247.294 481.862C247.57 481.958 247.978 482.084 248.518 482.24C249.238 482.432 249.826 482.63 250.282 482.834C250.75 483.026 251.152 483.314 251.488 483.698C251.824 484.082 251.998 484.592 252.01 485.228C252.01 485.792 251.854 486.296 251.542 486.74C251.23 487.184 250.786 487.532 250.21 487.784C249.646 488.036 248.98 488.162 248.212 488.162ZM256.621 479.756V485.246C256.621 485.618 256.705 485.888 256.873 486.056C257.053 486.212 257.353 486.29 257.773 486.29H259.033V488H257.413C256.489 488 255.781 487.784 255.289 487.352C254.797 486.92 254.551 486.218 254.551 485.246V479.756H253.381V478.082H254.551V475.616H256.621V478.082H259.033V479.756H256.621ZM267.652 479.54C268 479.084 268.474 478.7 269.074 478.388C269.674 478.076 270.352 477.92 271.108 477.92C271.972 477.92 272.758 478.136 273.466 478.568C274.186 478.988 274.75 479.582 275.158 480.35C275.566 481.118 275.77 482 275.77 482.996C275.77 483.992 275.566 484.886 275.158 485.678C274.75 486.458 274.186 487.07 273.466 487.514C272.758 487.946 271.972 488.162 271.108 488.162C270.352 488.162 269.68 488.012 269.092 487.712C268.504 487.4 268.024 487.016 267.652 486.56V492.716H265.6V478.082H267.652V479.54ZM273.682 482.996C273.682 482.312 273.538 481.724 273.25 481.232C272.974 480.728 272.602 480.35 272.134 480.098C271.678 479.834 271.186 479.702 270.658 479.702C270.142 479.702 269.65 479.834 269.182 480.098C268.726 480.362 268.354 480.746 268.066 481.25C267.79 481.754 267.652 482.348 267.652 483.032C267.652 483.716 267.79 484.316 268.066 484.832C268.354 485.336 268.726 485.72 269.182 485.984C269.65 486.248 270.142 486.38 270.658 486.38C271.186 486.38 271.678 486.248 272.134 485.984C272.602 485.708 272.974 485.312 273.25 484.796C273.538 484.28 273.682 483.68 273.682 482.996ZM277.115 482.996C277.115 482 277.319 481.118 277.727 480.35C278.147 479.582 278.711 478.988 279.419 478.568C280.139 478.136 280.931 477.92 281.795 477.92C282.575 477.92 283.253 478.076 283.829 478.388C284.417 478.688 284.885 479.066 285.233 479.522V478.082H287.303V488H285.233V486.524C284.885 486.992 284.411 487.382 283.811 487.694C283.211 488.006 282.527 488.162 281.759 488.162C280.907 488.162 280.127 487.946 279.419 487.514C278.711 487.07 278.147 486.458 277.727 485.678C277.319 484.886 277.115 483.992 277.115 482.996ZM285.233 483.032C285.233 482.348 285.089 481.754 284.801 481.25C284.525 480.746 284.159 480.362 283.703 480.098C283.247 479.834 282.755 479.702 282.227 479.702C281.699 479.702 281.207 479.834 280.751 480.098C280.295 480.35 279.923 480.728 279.635 481.232C279.359 481.724 279.221 482.312 279.221 482.996C279.221 483.68 279.359 484.28 279.635 484.796C279.923 485.312 280.295 485.708 280.751 485.984C281.219 486.248 281.711 486.38 282.227 486.38C282.755 486.38 283.247 486.248 283.703 485.984C284.159 485.72 284.525 485.336 284.801 484.832C285.089 484.316 285.233 483.716 285.233 483.032ZM292.05 479.522C292.35 479.018 292.746 478.628 293.238 478.352C293.742 478.064 294.336 477.92 295.02 477.92V480.044H294.498C293.694 480.044 293.082 480.248 292.662 480.656C292.254 481.064 292.05 481.772 292.05 482.78V488H289.998V478.082H292.05V479.522ZM299.301 479.756V485.246C299.301 485.618 299.385 485.888 299.553 486.056C299.733 486.212 300.033 486.29 300.453 486.29H301.713V488H300.093C299.169 488 298.461 487.784 297.969 487.352C297.477 486.92 297.231 486.218 297.231 485.246V479.756H296.061V478.082H297.231V475.616H299.301V478.082H301.713V479.756H299.301ZM304.648 476.768C304.276 476.768 303.964 476.642 303.712 476.39C303.46 476.138 303.334 475.826 303.334 475.454C303.334 475.082 303.46 474.77 303.712 474.518C303.964 474.266 304.276 474.14 304.648 474.14C305.008 474.14 305.314 474.266 305.566 474.518C305.818 474.77 305.944 475.082 305.944 475.454C305.944 475.826 305.818 476.138 305.566 476.39C305.314 476.642 305.008 476.768 304.648 476.768ZM305.656 478.082V488H303.604V478.082H305.656Z" fill="white"/>
<path d="M40 201H329" stroke="#566380" stroke-opacity="0.75" stroke-width="0.5" stroke-linecap="round" stroke-linejoin="round"/>
<path d="M40 255H329" stroke="#566380" stroke-opacity="0.75" stroke-width="0.5" stroke-linecap="round" stroke-linejoin="round"/>
<defs>
<filter id="filter0_d" x="0" y="0" width="369" height="558" filterUnits="userSpaceOnUse" color-interpolation-filters="sRGB">
<feFlood flood-opacity="0" result="BackgroundImageFix"/>
<feColorMatrix in="SourceAlpha" type="matrix" values="0 0 0 0 0 0 0 0 0 0 0 0 0 0 0 0 0 0 127 0"/>
<feOffset dy="5"/>
<feGaussianBlur stdDeviation="7.5"/>
<feColorMatrix type="matrix" values="0 0 0 0 0 0 0 0 0 0 0 0 0 0 0 0 0 0 0.1 0"/>
<feBlend mode="normal" in2="BackgroundImageFix" result="effect1_dropShadow"/>
<feBlend mode="normal" in="SourceGraphic" in2="effect1_dropShadow" result="shape"/>
</filter>
</defs>
</svg>
