<svg width="1440" height="2352" viewBox="0 0 1440 2352" fill="none" xmlns="http://www.w3.org/2000/svg">
<rect width="1440" height="2352" fill="white"/>
<path fill-rule="evenodd" clip-rule="evenodd" d="M-26.6992 1616.66C19.8328 1599.17 74.6053 1604.75 118.302 1628.44C160.452 1651.29 179.251 1698.78 202.306 1740.81C224.776 1781.78 248.516 1822.2 250.192 1868.89C252.056 1920.8 252.038 1982.75 212.189 2016.08C172.412 2049.36 112.407 2021.93 60.823 2027.3C16.9529 2031.87 -24.1514 2055.55 -67.0186 2045.17C-115.101 2033.53 -160.332 2007.33 -188.787 1966.86C-218.732 1924.29 -239.934 1869.29 -225.983 1819.14C-212.526 1770.76 -154.737 1753.61 -119.509 1717.82C-86.6038 1684.39 -70.6124 1633.17 -26.6992 1616.66Z" fill="#F6F4FC"/>
<path fill-rule="evenodd" clip-rule="evenodd" d="M1363.23 493.482C1433.84 482.841 1509.13 507.081 1563.42 553.46C1615.8 598.197 1627.99 670.569 1647.79 736.542C1667.1 800.837 1688.35 864.746 1676.72 930.861C1663.79 1004.37 1645.22 1091.42 1579.25 1126.33C1513.4 1161.18 1437.31 1104.65 1363.23 1096.76C1300.23 1090.04 1235.39 1111.01 1178.27 1083.58C1114.2 1052.82 1058.5 1002.45 1030.64 937.067C1001.32 868.263 987.998 784.628 1022.62 718.33C1056.01 654.375 1142.33 647.586 1202.55 607.839C1258.79 570.713 1296.59 503.523 1363.23 493.482Z" fill="#F6F4FC"/>
</svg>
