<svg width="50" height="50" viewBox="0 0 50 50" fill="none" xmlns="http://www.w3.org/2000/svg">
<circle cx="25" cy="25" r="25" fill="#C12051"/>
<path d="M29 34V32C29 30.9391 28.5786 29.9217 27.8284 29.1716C27.0783 28.4214 26.0609 28 25 28H18C16.9391 28 15.9217 28.4214 15.1716 29.1716C14.4214 29.9217 14 30.9391 14 32V34" stroke="white" stroke-width="2" stroke-linecap="round" stroke-linejoin="round"/>
<path d="M21.5 24C23.7091 24 25.5 22.2091 25.5 20C25.5 17.7909 23.7091 16 21.5 16C19.2909 16 17.5 17.7909 17.5 20C17.5 22.2091 19.2909 24 21.5 24Z" stroke="white" stroke-width="2" stroke-linecap="round" stroke-linejoin="round"/>
<path d="M30 24L32 26L36 22" stroke="white" stroke-width="2" stroke-linecap="round" stroke-linejoin="round"/>
</svg>
