<svg width="24" height="24" viewBox="0 0 24 24" fill="none" xmlns="http://www.w3.org/2000/svg">
<path fill-rule="evenodd" clip-rule="evenodd" d="M2 12C2 17.5228 6.47715 22 12 22C17.5228 22 22 17.5228 22 12C22 6.47715 17.5228 2 12 2C6.47716 2 2 6.47715 2 12ZM3.29016e-06 12C3.00047e-06 18.6274 5.37259 24 12 24C18.6274 24 24 18.6274 24 12C24 5.37258 18.6274 -2.34843e-07 12 -5.24537e-07C5.37259 -8.1423e-07 3.57985e-06 5.37258 3.29016e-06 12Z" fill="#E1366A"/>
<path d="M7.80179 9.4282C8.21765 8.99068 8.90301 8.99072 9.3188 9.42839L12 12.2506L14.681 9.42848C15.0969 8.99093 15.7823 8.99072 16.1982 9.4284C16.6004 9.85168 16.6004 10.528 16.1983 10.9512L12.7584 14.572C12.5535 14.7875 12.2788 14.9001 12 14.9001C11.721 14.9001 11.4461 14.7873 11.2414 14.5718L7.80162 10.9511C7.39942 10.5279 7.39944 9.85147 7.80179 9.4282Z" fill="#E1366A"/>
</svg>
