<svg width="1440" height="898" viewBox="0 0 1440 898" fill="none" xmlns="http://www.w3.org/2000/svg">
<rect width="1437" height="697" fill="white"/>
<path d="M939 71H1437V697H939V71Z" fill="white"/>
<path fill-rule="evenodd" clip-rule="evenodd" d="M1204.59 311.703C1260.12 265.278 1256.98 145.214 1329.2 140.409C1402.11 135.559 1428.09 240.602 1478.51 293.481C1512.21 328.824 1550.77 356.382 1575.36 398.572C1603.18 446.287 1630.81 495.961 1628.7 551.15C1626.33 613.305 1604.79 674.811 1563.07 720.936C1518.15 770.588 1457.67 812.553 1390.73 814.199C1325.25 815.81 1265.98 774.864 1218.83 729.405C1178.59 690.611 1180.15 627.93 1149.23 581.37C1107.09 517.935 991.383 484.633 1006.7 410.035C1021.88 336.072 1146.66 360.133 1204.59 311.703Z" fill="#FFECEC"/>
</svg>
