<svg width="484" height="926" viewBox="0 0 484 926" fill="none" xmlns="http://www.w3.org/2000/svg">
<path fill-rule="evenodd" clip-rule="evenodd" d="M365.424 178.642C427.871 126.842 513.026 99.947 592.417 105.065C674.907 110.383 748.854 150.425 801.656 206.765C853.308 261.879 882.816 335.278 879.758 411.661C876.911 482.76 829.95 545.857 785.639 606.792C745.07 662.58 696.383 710.08 636.018 746.839C568.541 787.928 497.218 831.557 419.958 829.468C338.337 827.261 263.991 789.43 210.422 735.33C157.162 681.541 111.875 608.957 126.221 532.815C139.936 460.031 237.22 427.829 280.411 363.879C320.032 305.214 309.734 224.838 365.424 178.642Z" fill="#FFECEC"/>
</svg>
