<svg width="501" height="827" viewBox="0 0 501 827" fill="none" xmlns="http://www.w3.org/2000/svg">
<path d="M0 0H498V626H0V0Z" fill="white"/>
<path fill-rule="evenodd" clip-rule="evenodd" d="M265.586 240.703C321.117 194.278 317.982 74.2137 390.203 69.4093C463.106 64.5595 489.086 169.602 539.506 222.481C573.206 257.824 611.771 285.382 636.364 327.572C664.177 375.287 691.809 424.961 689.704 480.15C687.332 542.305 665.793 603.811 624.065 649.936C579.146 699.588 518.667 741.553 451.732 743.199C386.255 744.81 326.978 703.864 279.825 658.405C239.586 619.611 241.152 556.93 210.227 510.37C168.093 446.935 52.383 413.633 67.697 339.035C82.8808 265.072 207.658 289.133 265.586 240.703Z" fill="#FFECEC"/>
</svg>
