<svg width="50" height="50" viewBox="0 0 50 50" fill="none" xmlns="http://www.w3.org/2000/svg">
<path d="M42.9317 34.5164C40.5787 33.8746 38.9038 33.2224 37.954 32.5786C37.0619 31.9735 35.8144 31.4302 34.6168 31.1246C33.2802 30.7835 32.3954 30.8237 32.0134 30.9745C29.8559 31.8275 27.843 32.1617 26.0305 31.9647C24.4691 31.7961 23.3517 31.2758 22.6122 30.9315C22.4352 30.8491 22.2823 30.7779 22.1583 30.7269C22.0864 30.6976 22.0072 30.665 21.9209 30.6292C20.5665 30.0705 17.395 28.7573 14.7683 30.3031C12.3591 31.7214 8.29587 33.28 6.16772 34.0562C6.27038 34.2678 6.37629 34.4773 6.48546 34.6847C6.52492 34.7591 6.56472 34.8334 6.60487 34.9071C6.67052 35.0284 6.73744 35.1487 6.80564 35.2682L6.89747 35.4277C7.05087 35.6912 7.20951 35.9512 7.37338 36.2077C7.46393 36.3488 7.55599 36.4885 7.64957 36.6267C7.88397 36.9736 8.12839 37.3128 8.38281 37.6446C8.48453 37.7772 8.58777 37.9085 8.69252 38.0384C8.77806 38.1432 8.865 38.25 8.95229 38.3527C9.31682 38.2441 9.77527 38.0915 10.2491 37.9337C12.888 37.0559 16.8765 35.7297 20.0755 36.3914C24.5797 37.3237 27.4429 37.6362 30.5794 36.7577C32.7969 36.1365 34.6761 35.8481 38.6754 37.8031C39.5176 38.2147 40.1583 38.5035 40.6426 38.706L40.7243 38.6131C40.7788 38.5499 40.8332 38.4867 40.887 38.4228C40.9948 38.2955 41.101 38.1667 41.2058 38.0363C41.3105 37.906 41.4138 37.7747 41.5155 37.6425C41.7697 37.3108 42.0141 36.9715 42.2487 36.6246C42.3418 36.485 42.4339 36.3453 42.5249 36.2057C42.689 35.9496 42.8477 35.6896 43.0008 35.4256L43.0927 35.2661C43.1606 35.1462 43.2277 35.0258 43.2938 34.905C43.3336 34.8313 43.3734 34.757 43.4128 34.6826L43.431 34.6477C43.2676 34.6063 43.1012 34.5625 42.9317 34.5164Z" fill="#E1366A"/>
<path d="M37.7541 39.6878C34.3355 38.017 33.0146 38.2537 31.1428 38.7778C29.634 39.2003 28.1648 39.369 26.6993 39.369C24.3907 39.369 22.0904 38.95 19.6494 38.4458C17.0021 37.8979 13.3352 39.1172 10.9085 39.9245L10.5366 40.0467L10.5474 40.0575L10.5642 40.0736C10.7949 40.2931 11.0307 40.5075 11.2716 40.7167C11.3526 40.7866 11.4341 40.8564 11.516 40.9262C11.621 41.0149 11.7273 41.1027 11.8348 41.1895C11.9922 41.3171 12.1516 41.4423 12.3132 41.5652C12.4747 41.6881 12.6413 41.8111 12.8128 41.9343C13.1287 42.1605 13.4512 42.3781 13.7803 42.5869C13.9926 42.7216 14.2075 42.8527 14.4249 42.98C14.518 43.0338 14.6111 43.087 14.7042 43.1396C14.7708 43.1773 14.8378 43.2147 14.9053 43.2517C15.0473 43.3299 15.1904 43.4065 15.3345 43.4814C15.4846 43.5594 15.6359 43.6356 15.7884 43.7101C15.9408 43.7846 16.0973 43.8589 16.2576 43.9329C16.3275 43.9647 16.3973 43.9961 16.4671 44.0272C16.7109 44.1359 16.9569 44.2399 17.2053 44.3393C17.3449 44.3952 17.4854 44.4495 17.6267 44.5024C22.3496 46.265 27.5498 46.265 32.2727 44.5024C32.4139 44.4495 32.5544 44.3952 32.6941 44.3393C32.9427 44.2397 33.1887 44.1356 33.4322 44.0272C33.5021 43.9961 33.5719 43.9647 33.6417 43.9329C33.7991 43.8605 33.9555 43.7862 34.111 43.7101C34.2665 43.634 34.4178 43.5578 34.5649 43.4814C34.7092 43.4062 34.8523 43.3297 34.994 43.2517C35.0613 43.2147 35.1283 43.1773 35.1951 43.1396C35.2882 43.0872 35.3808 43.034 35.4727 42.98C35.6899 42.8529 35.9048 42.7219 36.1173 42.5869C36.4462 42.3774 36.7687 42.1598 37.0848 41.9343C37.2531 41.8135 37.4197 41.6904 37.5845 41.5652C37.7493 41.44 37.9087 41.3147 38.0628 41.1895C38.1699 41.1027 38.2761 41.0149 38.3816 40.9262C38.464 40.8564 38.5455 40.7866 38.626 40.7167C38.7792 40.5834 38.9305 40.448 39.0799 40.3107C38.6737 40.1289 38.2318 39.9212 37.7541 39.6878Z" fill="#E1366A"/>
<path d="M7.42911 17.0178C12.4071 13.2601 13.9026 12.6097 14.595 12.4476C16.1033 12.0943 17.4993 12.7361 18.7325 13.301C19.4633 13.6372 20.2193 13.9847 20.6634 13.9295C20.7818 13.9145 21.1651 13.8188 22.1707 13.2567C22.9211 12.8377 23.8076 12.2769 24.6651 11.735C26.2626 10.7256 27.7727 9.77202 28.846 9.40366C29.9633 9.01958 31.0957 9.24863 32.3128 10.0992C33.2653 10.765 34.242 11.778 35.3729 12.9508C37.632 15.2933 40.655 18.4281 45.3673 20.6627C45.2509 20.1013 45.1113 19.5486 44.9483 19.0046C44.8994 18.84 44.8486 18.677 44.7957 18.5157C44.6377 18.0285 44.4623 17.5494 44.2695 17.0782C44.2374 16.9998 44.2049 16.9216 44.1721 16.8436C44.073 16.6094 43.9698 16.3776 43.8628 16.1481C43.8279 16.0716 43.7908 15.9955 43.7542 15.9194C43.6443 15.6912 43.5305 15.4656 43.4127 15.2423C43.3732 15.168 43.3334 15.0936 43.2936 15.0199C43.0527 14.5765 42.7967 14.1429 42.5255 13.7193C42.4352 13.5782 42.3431 13.4386 42.2493 13.3003C42.0149 12.9537 41.7705 12.6144 41.516 12.2825C41.4143 12.1498 41.3111 12.0185 41.2063 11.8886C41.1016 11.7588 40.9953 11.6299 40.8876 11.5021C40.8338 11.4382 40.7793 11.375 40.7248 11.3118C36.8973 6.89388 31.2486 4.10059 24.9476 4.10059C18.6466 4.10059 12.9979 6.89388 9.17247 11.3108C9.118 11.374 9.06353 11.4372 9.00976 11.5011C8.90199 11.6286 8.79573 11.7575 8.69098 11.8876C8.58623 12.0177 8.48299 12.149 8.38127 12.2814C8.12708 12.6132 7.88267 12.9524 7.64803 13.2993C7.55492 13.4389 7.46286 13.5786 7.37185 13.7182C7.10066 14.1417 6.84461 14.5752 6.60369 15.0189C6.56354 15.0926 6.52373 15.1669 6.48428 15.2413C6.36649 15.4643 6.25266 15.69 6.14279 15.9183C6.10788 15.9944 6.07017 16.0706 6.03421 16.147C5.92713 16.3768 5.82401 16.6086 5.72485 16.8425C5.69203 16.9205 5.65955 16.9987 5.62743 17.0772C5.43516 17.5479 5.25976 18.027 5.10125 18.5147C5.05935 18.6435 5.01919 18.7731 4.97974 18.9026C5.72136 18.3219 6.56249 17.6718 7.42911 17.0178Z" fill="#E1366A"/>
<path d="M4.1122 23.8894C4.10777 23.9783 4.10382 24.0674 4.10032 24.1565C4.09008 24.4242 4.08496 24.6931 4.08496 24.9631C4.08496 25.2657 4.09148 25.5672 4.10451 25.8678C5.62651 24.9694 7.66597 23.7099 9.28922 22.7078C10.2428 22.1191 11.0665 21.6108 11.6576 21.2529C12.8954 20.5039 13.9589 20.7826 14.8971 21.028C16.0811 21.3381 17.4233 21.6914 20.0926 20.3545C22.6583 19.0713 24.7609 18.5807 26.7103 18.8108C28.4977 19.0203 30.005 19.8 31.7896 20.7955C33.4655 21.7309 36.7945 23.3838 39.9135 24.7337C43.0183 26.0776 44.7637 26.6335 45.725 26.8576C45.7808 26.2338 45.8091 25.6023 45.8098 24.9631C45.8098 24.6931 45.8047 24.4242 45.7945 24.1565C45.791 24.0674 45.787 23.9783 45.7826 23.8894C45.7696 23.6306 45.7517 23.3732 45.7292 23.1174C39.9387 20.7054 36.4317 17.0692 33.8632 14.4055C31.7773 12.2406 30.5462 11.035 29.5239 11.3859C28.6817 11.6747 27.2079 12.6059 25.7826 13.5064C23.4596 14.9728 21.9736 15.8751 20.9254 16.0081C19.8866 16.1397 18.8542 15.6652 17.8556 15.205C16.8849 14.7588 15.8811 14.2972 15.0727 14.4868C14.7955 14.5518 13.5165 15.0455 8.69111 18.6893C6.87302 20.0622 5.16946 21.4159 4.277 22.1349C4.26932 22.1921 4.26129 22.2497 4.25396 22.3073C4.18668 22.8285 4.13943 23.3559 4.1122 23.8894Z" fill="#E1366A"/>
<path d="M43.6756 28.4454C42.4242 28.0359 40.8784 27.4329 39.0816 26.6563C35.899 25.2789 32.4908 23.5837 30.7688 22.6249C27.7709 20.9524 25.7901 19.8473 21.0299 22.2279C19.5533 22.9667 18.23 23.3515 16.9846 23.4042C15.8816 23.4514 15.0415 23.2314 14.3658 23.0551C13.5153 22.8323 13.1979 22.7695 12.7415 23.0457C12.1584 23.3983 11.3386 23.9046 10.3892 24.4905C8.34349 25.7538 5.88713 27.2702 4.32812 28.1612C4.34244 28.2555 4.3578 28.3494 4.37352 28.443C4.40005 28.6001 4.4281 28.7567 4.45766 28.9126C4.47757 29.0174 4.49817 29.1186 4.51947 29.2213C4.54717 29.354 4.57603 29.4862 4.60606 29.6179C4.66774 29.8896 4.73478 30.1591 4.80718 30.4266C4.85187 30.5926 4.89842 30.7575 4.94684 30.9213C5.06765 31.3278 5.20045 31.7286 5.34524 32.1239C7.3819 31.3819 11.4207 29.84 13.7031 28.4975C15.2342 27.5966 17.0275 27.2908 19.0334 27.5896C20.6141 27.8243 21.9315 28.369 22.7185 28.6947C22.7998 28.7297 22.8746 28.7593 22.9423 28.7866C23.1169 28.8564 23.3009 28.943 23.4954 29.0338C24.8222 29.6521 27.0453 30.6867 31.2419 29.0278C32.4165 28.5631 34.0062 28.8086 35.1333 29.0959C36.5739 29.4636 38.0313 30.1012 39.1284 30.8459C40.1665 31.5495 42.4608 32.2426 44.3201 32.7174C44.3969 32.5254 44.4711 32.3321 44.5425 32.1375C44.6889 31.738 44.8232 31.333 44.9455 30.9224C44.9943 30.7595 45.0409 30.5945 45.0851 30.4276C45.1577 30.1602 45.2248 29.8906 45.2862 29.619C45.3163 29.4875 45.3451 29.3552 45.3728 29.2223C45.3924 29.1277 45.4116 29.0324 45.4301 28.9371C44.8371 28.8037 44.2515 28.6396 43.6756 28.4454Z" fill="#E1366A"/>
<path d="M24.9478 2.10704C37.6178 2.10704 47.8877 12.3399 47.8877 24.9632C47.8877 37.5864 37.6168 47.8193 24.9478 47.8193C12.2788 47.8193 2.00785 37.5864 2.00785 24.9632C2.00785 12.3399 12.2788 2.10704 24.9478 2.10704ZM24.9478 0.0207983C18.7533 0.031312 12.7836 2.34238 8.19681 6.50564C3.61001 10.6689 0.733165 16.3875 0.12442 22.552C-0.484325 28.7165 1.21843 34.8873 4.90233 39.8673C8.58623 44.8473 13.9886 48.2814 20.0614 49.5033C26.1341 50.7252 32.4443 49.6478 37.7676 46.4802C43.0909 43.3125 47.0478 38.2805 48.8706 32.3603C50.6934 26.4401 50.2522 20.0538 47.6326 14.4405C45.0129 8.82728 40.4016 4.38718 34.6933 1.98169C31.6091 0.681204 28.2949 0.0143475 24.9478 0.0207983Z" fill="#E1366A"/>
</svg>
