<svg width="1310" height="1429" viewBox="0 0 1310 1429" fill="none" xmlns="http://www.w3.org/2000/svg">
<path fill-rule="evenodd" clip-rule="evenodd" d="M566.01 83.8897C714.885 65.6353 860.706 -40.4023 999.894 16.7316C1148.1 77.5681 1260.89 225.793 1298.86 384.712C1335.81 539.342 1275.5 701.66 1196.29 838.609C1128.35 956.077 992.719 999.123 891.869 1088.37C777.224 1189.83 711.56 1353.4 566.01 1396.39C401.04 1445.12 194.038 1450.81 67.5154 1331.88C-58.6927 1213.24 3.22849 1000.13 -37.0271 829.537C-72.8593 677.691 -204.394 536.451 -155.07 388.632C-105.793 240.956 60.7341 174.125 201.526 114.624C317.051 65.8004 441.931 99.1036 566.01 83.8897Z" fill="#F6F4FC"/>
</svg>
