<svg width="668" height="886" viewBox="0 0 668 886" fill="none" xmlns="http://www.w3.org/2000/svg">
<path fill-rule="evenodd" clip-rule="evenodd" d="M126.143 800.557C47.3974 776.505 -34.4579 740.835 -76.3639 669.961C-115.588 603.621 -85.3252 521.618 -84.3487 444.556C-83.5194 379.119 -92.5191 315.325 -71.0862 253.492C-45.6454 180.095 -19.9536 96.4555 48.826 60.3497C118.514 23.7669 205.116 42.5365 278.977 69.726C345.671 94.2773 399.483 143.998 438.113 203.653C472.431 256.648 463.102 322.894 481.943 383.154C507.627 465.301 587.031 535.813 568.224 619.801C548.497 707.901 469.66 777.046 386.094 811.214C303.808 844.859 211.164 826.526 126.143 800.557Z" fill="#F6F4FC"/>
</svg>
