<svg width="482" height="647" viewBox="0 0 482 647" fill="none" xmlns="http://www.w3.org/2000/svg">
<path fill-rule="evenodd" clip-rule="evenodd" d="M361.23 2.48154C431.842 -8.15863 507.125 16.0814 561.423 62.4602C613.799 107.197 625.989 179.569 645.794 245.542C665.095 309.837 686.346 373.746 674.72 439.861C661.794 513.367 643.217 600.42 577.251 635.329C511.401 670.176 435.312 613.655 361.23 605.757C298.226 599.04 233.386 620.005 176.268 592.581C112.201 561.819 56.501 511.448 28.639 446.067C-0.682211 377.263 -14.0017 293.628 20.6159 227.33C54.0098 163.375 140.334 156.586 200.546 116.839C256.787 79.7126 294.592 12.5229 361.23 2.48154Z" fill="#F6F4FC"/>
</svg>
