<svg width="119" height="119" viewBox="0 0 119 119" fill="none" xmlns="http://www.w3.org/2000/svg">
<path fill-rule="evenodd" clip-rule="evenodd" d="M14.875 30C14.875 26.0881 16.4422 22.3363 19.2318 19.5702C22.0214 16.804 25.8049 15.25 29.75 15.25H89.25C93.1951 15.25 96.9786 16.804 99.7682 19.5702C102.558 22.3363 104.125 26.0881 104.125 30V69.3333C104.125 73.2453 102.558 76.997 99.7682 79.7632C96.9786 82.5293 93.1951 84.0833 89.25 84.0833H71.4694L82.8389 95.3573C83.7421 96.2845 84.2419 97.5265 84.2306 98.8156C84.2193 100.105 83.6978 101.338 82.7785 102.25C81.8592 103.161 80.6155 103.678 79.3155 103.689C78.0154 103.701 76.7629 103.205 75.8278 102.309L59.5 86.1188L43.1722 102.309C42.2371 103.205 40.9846 103.701 39.6845 103.689C38.3845 103.678 37.1408 103.161 36.2215 102.25C35.3022 101.338 34.7807 100.105 34.7694 98.8156C34.7582 97.5265 35.2579 96.2845 36.1611 95.3573L47.5306 84.0833H29.75C25.8049 84.0833 22.0214 82.5293 19.2318 79.7632C16.4422 76.997 14.875 73.2453 14.875 69.3333V30ZM84.2917 39.8333C84.2917 38.5294 83.7693 37.2788 82.8394 36.3567C81.9095 35.4347 80.6484 34.9167 79.3333 34.9167C78.0183 34.9167 76.7571 35.4347 75.8273 36.3567C74.8974 37.2788 74.375 38.5294 74.375 39.8333V59.5C74.375 60.804 74.8974 62.0546 75.8273 62.9766C76.7571 63.8987 78.0183 64.4167 79.3333 64.4167C80.6484 64.4167 81.9095 63.8987 82.8394 62.9766C83.7693 62.0546 84.2917 60.804 84.2917 59.5V39.8333ZM64.4583 49.6667C64.4583 48.3627 63.9359 47.1121 63.0061 46.1901C62.0762 45.268 60.815 44.75 59.5 44.75C58.185 44.75 56.9238 45.268 55.9939 46.1901C55.0641 47.1121 54.5417 48.3627 54.5417 49.6667V59.5C54.5417 60.804 55.0641 62.0546 55.9939 62.9766C56.9238 63.8987 58.185 64.4167 59.5 64.4167C60.815 64.4167 62.0762 63.8987 63.0061 62.9766C63.9359 62.0546 64.4583 60.804 64.4583 59.5V49.6667ZM44.625 54.5833C44.625 53.2794 44.1026 52.0288 43.1727 51.1067C42.2429 50.1847 40.9817 49.6667 39.6667 49.6667C38.3516 49.6667 37.0905 50.1847 36.1606 51.1067C35.2307 52.0288 34.7083 53.2794 34.7083 54.5833V59.5C34.7083 60.804 35.2307 62.0546 36.1606 62.9766C37.0905 63.8987 38.3516 64.4167 39.6667 64.4167C40.9817 64.4167 42.2429 63.8987 43.1727 62.9766C44.1026 62.0546 44.625 60.804 44.625 59.5V54.5833Z" fill="#E1366A"/>
</svg>
