<svg width="117" height="117" viewBox="0 0 117 117" fill="none" xmlns="http://www.w3.org/2000/svg">
<path d="M19.5 63.375H48.75C51.4313 63.375 53.625 61.1813 53.625 58.5V19.5C53.625 16.8187 51.4313 14.625 48.75 14.625H19.5C16.8187 14.625 14.625 16.8187 14.625 19.5V58.5C14.625 61.1813 16.8187 63.375 19.5 63.375ZM19.5 102.375H48.75C51.4313 102.375 53.625 100.181 53.625 97.5V78C53.625 75.3187 51.4313 73.125 48.75 73.125H19.5C16.8187 73.125 14.625 75.3187 14.625 78V97.5C14.625 100.181 16.8187 102.375 19.5 102.375ZM68.25 102.375H97.5C100.181 102.375 102.375 100.181 102.375 97.5V58.5C102.375 55.8187 100.181 53.625 97.5 53.625H68.25C65.5687 53.625 63.375 55.8187 63.375 58.5V97.5C63.375 100.181 65.5687 102.375 68.25 102.375ZM63.375 19.5V39C63.375 41.6812 65.5687 43.875 68.25 43.875H97.5C100.181 43.875 102.375 41.6812 102.375 39V19.5C102.375 16.8187 100.181 14.625 97.5 14.625H68.25C65.5687 14.625 63.375 16.8187 63.375 19.5Z" fill="#E1366A"/>
</svg>
