<svg width="220" height="52" viewBox="0 0 220 52" fill="none" xmlns="http://www.w3.org/2000/svg">
<path d="M43.6425 35.8942C41.2504 35.2264 39.5476 34.5477 38.5821 33.8777C37.6751 33.2481 36.4068 32.6828 35.1893 32.3649C33.8305 32.0099 32.931 32.0517 32.5426 32.2086C30.3493 33.0962 28.3029 33.4439 26.4602 33.239C24.8728 33.0635 23.7369 32.5222 22.9851 32.1639C22.8051 32.0782 22.6496 32.0041 22.5236 31.951C22.4505 31.9205 22.37 31.8866 22.2822 31.8493C20.9053 31.268 17.6811 29.9015 15.0107 31.51C12.5614 32.9858 8.43061 34.6076 6.26708 35.4153C6.37144 35.6355 6.47911 35.8535 6.5901 36.0693C6.63021 36.1467 6.67068 36.2241 6.7115 36.3007C6.77823 36.4269 6.84627 36.5521 6.9156 36.6764L7.00896 36.8424C7.16491 37.1166 7.32619 37.3872 7.49278 37.6541C7.58484 37.8009 7.67843 37.9462 7.77357 38.0901C8.01187 38.451 8.26035 38.804 8.519 39.1492C8.62242 39.2872 8.72737 39.4238 8.83386 39.559C8.92083 39.668 9.00922 39.7792 9.09796 39.886C9.46855 39.773 9.93462 39.6142 10.4163 39.45C13.0992 38.5366 17.154 37.1567 20.4062 37.8452C24.9853 38.8153 27.8961 39.1404 31.0848 38.2263C33.3392 37.58 35.2496 37.2799 39.3154 39.3141C40.1716 39.7425 40.823 40.0429 41.3153 40.2537L41.3984 40.157C41.4538 40.0912 41.5092 40.0255 41.5638 39.959C41.6734 39.8265 41.7814 39.6924 41.8879 39.5568C41.9944 39.4212 42.0993 39.2846 42.2028 39.147C42.4612 38.8018 42.7097 38.4488 42.9482 38.0879C43.0429 37.9426 43.1365 37.7972 43.229 37.6519C43.3958 37.3855 43.5571 37.1149 43.7128 36.8402L43.8062 36.6742C43.8753 36.5495 43.9434 36.4242 44.0106 36.2985C44.0511 36.2219 44.0916 36.1445 44.1317 36.0671L44.1501 36.0308C43.984 35.9877 43.8148 35.9421 43.6425 35.8942Z" fill="#E1366A"/>
<path d="M38.3787 41.2751C34.9032 39.5366 33.5604 39.7829 31.6574 40.3283C30.1236 40.7679 28.6299 40.9434 27.14 40.9434C24.793 40.9434 22.4544 40.5074 19.9728 39.9827C17.2815 39.4127 13.5536 40.6814 11.0865 41.5214L10.7085 41.6486L10.7195 41.6598L10.7365 41.6766C10.9711 41.905 11.2108 42.128 11.4557 42.3458C11.5381 42.4185 11.6209 42.4911 11.7042 42.5638C11.8109 42.6561 11.9189 42.7474 12.0283 42.8377C12.1882 42.9705 12.3504 43.1008 12.5146 43.2287C12.6788 43.3566 12.8481 43.4846 13.0225 43.6127C13.3437 43.8481 13.6715 44.0745 14.0062 44.2918C14.222 44.432 14.4404 44.5684 14.6614 44.7009C14.7561 44.7568 14.8508 44.8121 14.9454 44.8669C15.0131 44.9061 15.0813 44.945 15.1499 44.9835C15.2942 45.0649 15.4397 45.1446 15.5861 45.2226C15.7388 45.3037 15.8926 45.3831 16.0476 45.4606C16.2026 45.5381 16.3616 45.6153 16.5247 45.6924C16.5957 45.7254 16.6667 45.7581 16.7377 45.7905C16.9854 45.9036 17.2356 46.0118 17.4881 46.1153C17.6301 46.1734 17.7729 46.23 17.9165 46.2849C22.718 48.119 28.0046 48.119 32.8061 46.2849C32.9497 46.23 33.0925 46.1734 33.2345 46.1153C33.4873 46.0116 33.7374 45.9033 33.9849 45.7905C34.0559 45.7581 34.1269 45.7254 34.1979 45.6924C34.3579 45.617 34.5169 45.5398 34.675 45.4606C34.8331 45.3814 34.9869 45.302 35.1364 45.2226C35.2832 45.1443 35.4286 45.0647 35.5727 44.9835C35.6411 44.945 35.7092 44.9061 35.7772 44.8669C35.8718 44.8124 35.9659 44.757 36.0594 44.7009C36.2802 44.5686 36.4986 44.4322 36.7146 44.2918C37.049 44.0738 37.3769 43.8474 37.6983 43.6127C37.8694 43.487 38.0387 43.359 38.2062 43.2287C38.3738 43.0984 38.5359 42.968 38.6925 42.8377C38.8014 42.7474 38.9094 42.6561 39.0166 42.5638C39.1004 42.4911 39.1832 42.4185 39.2651 42.3458C39.4208 42.207 39.5746 42.0662 39.7266 41.9233C39.3136 41.7341 38.8643 41.518 38.3787 41.2751Z" fill="#E1366A"/>
<path d="M7.54933 17.6859C12.6101 13.7758 14.1305 13.0989 14.8344 12.9304C16.3678 12.5627 17.787 13.2305 19.0408 13.8183C19.7837 14.1682 20.5522 14.5297 21.0037 14.4723C21.1241 14.4567 21.5138 14.3571 22.5361 13.7722C23.299 13.3362 24.2002 12.7527 25.072 12.1888C26.696 11.1385 28.2313 10.1462 29.3224 9.76293C30.4584 9.36328 31.6095 9.60161 32.8469 10.4867C33.8153 11.1795 34.8081 12.2335 35.9579 13.4539C38.2545 15.8914 41.3279 19.1533 46.1185 21.4786C46.0002 20.8943 45.8582 20.3192 45.6926 19.7532C45.6429 19.5819 45.5912 19.4124 45.5374 19.2445C45.3768 18.7376 45.1985 18.239 45.0025 17.7487C44.9699 17.6671 44.9368 17.5857 44.9035 17.5046C44.8027 17.2609 44.6978 17.0197 44.589 16.7808C44.5535 16.7013 44.5159 16.6221 44.4786 16.5429C44.3669 16.3055 44.2512 16.0707 44.1314 15.8384C44.0913 15.761 44.0508 15.6836 44.0104 15.6069C43.7654 15.1455 43.5051 14.6944 43.2294 14.2536C43.1376 14.1068 43.044 13.9615 42.9487 13.8176C42.7104 13.4569 42.4619 13.1039 42.2032 12.7585C42.0998 12.6204 41.9949 12.4838 41.8884 12.3487C41.7819 12.2135 41.6738 12.0795 41.5643 11.9465C41.5096 11.88 41.4542 11.8142 41.3989 11.7485C37.5077 7.15138 31.765 4.24482 25.3592 4.24482C18.9534 4.24482 13.2107 7.15138 9.32169 11.7474C9.26632 11.8131 9.21094 11.8789 9.15628 11.9454C9.04671 12.0781 8.93868 12.2122 8.83219 12.3476C8.7257 12.483 8.62075 12.6196 8.51733 12.7574C8.25891 13.1026 8.01044 13.4556 7.7719 13.8165C7.67724 13.9618 7.58365 14.1072 7.49112 14.2525C7.21542 14.6931 6.95511 15.1442 6.71018 15.6059C6.66936 15.6825 6.6289 15.7599 6.58879 15.8373C6.46904 16.0693 6.35332 16.3042 6.24162 16.5418C6.20613 16.621 6.16779 16.7002 6.13123 16.7797C6.02237 17.0188 5.91754 17.26 5.81673 17.5035C5.78336 17.5846 5.75035 17.666 5.71769 17.7476C5.52222 18.2374 5.34391 18.736 5.18275 19.2434C5.14015 19.3775 5.09933 19.5123 5.05922 19.6471C5.81318 19.0429 6.6683 18.3664 7.54933 17.6859Z" fill="#E1366A"/>
<path d="M4.17753 24.836C4.17304 24.9285 4.16901 25.0211 4.16546 25.1139C4.15505 25.3924 4.14984 25.6722 4.14984 25.9532C4.14984 26.268 4.15647 26.5818 4.16972 26.8945C5.71703 25.9597 7.79041 24.6492 9.44066 23.6065C10.4101 22.9939 11.2475 22.4649 11.8484 22.0925C13.1068 21.3132 14.188 21.6031 15.1418 21.8585C16.3455 22.1812 17.71 22.5489 20.4238 21.1577C23.0321 19.8225 25.1697 19.312 27.1515 19.5515C28.9686 19.7695 30.501 20.5807 32.3152 21.6166C34.0191 22.5899 37.4034 24.3099 40.5743 25.7145C43.7307 27.1129 45.5052 27.6913 46.4824 27.9246C46.5392 27.2754 46.568 26.6183 46.5687 25.9532C46.5687 25.6722 46.5635 25.3924 46.5531 25.1139C46.5495 25.0211 46.5455 24.9285 46.541 24.836C46.5277 24.5666 46.5096 24.2989 46.4867 24.0327C40.5999 21.5228 37.0346 17.7392 34.4234 14.9674C32.3028 12.7149 31.0512 11.4603 30.0118 11.8254C29.1557 12.1259 27.6573 13.0949 26.2084 14.0319C23.8467 15.5578 22.336 16.4967 21.2704 16.6351C20.2143 16.7721 19.1647 16.2783 18.1495 15.7994C17.1627 15.3351 16.1421 14.8548 15.3204 15.0521C15.0385 15.1197 13.7383 15.6334 8.8326 19.425C6.98427 20.8536 5.25238 22.2622 4.34508 23.0103C4.33727 23.0699 4.3291 23.1298 4.32165 23.1898C4.25326 23.7321 4.20522 24.2808 4.17753 24.836Z" fill="#E1366A"/>
<path d="M44.3986 29.5767C43.1264 29.1506 41.555 28.5231 39.7283 27.7151C36.4927 26.2818 33.0279 24.5179 31.2772 23.5202C28.2294 21.7799 26.2157 20.63 21.3764 23.1071C19.8752 23.8759 18.5299 24.2763 17.2637 24.3311C16.1423 24.3802 15.2883 24.1513 14.6014 23.9678C13.7367 23.736 13.414 23.6706 12.9501 23.958C12.3573 24.3249 11.5238 24.8518 10.5587 25.4614C8.47889 26.7759 5.98168 28.3538 4.39674 29.281C4.41129 29.3791 4.42691 29.4768 4.44288 29.5742C4.46986 29.7377 4.49838 29.9006 4.52843 30.0629C4.54867 30.1719 4.56961 30.2772 4.59126 30.384C4.61942 30.5221 4.64877 30.6597 4.67929 30.7968C4.74201 31.0794 4.81016 31.3599 4.88376 31.6382C4.92919 31.8109 4.97652 31.9825 5.02574 32.153C5.14856 32.5759 5.28357 32.993 5.43077 33.4043C7.5013 32.6323 11.6072 31.0278 13.9277 29.6309C15.4842 28.6935 17.3073 28.3752 19.3466 28.6862C20.9536 28.9304 22.2929 29.4972 23.093 29.8361C23.1757 29.8725 23.2517 29.9034 23.3205 29.9317C23.498 30.0044 23.6851 30.0945 23.8828 30.1889C25.2317 30.8324 27.4918 31.9089 31.7582 30.1828C32.9523 29.6992 34.5684 29.9546 35.7143 30.2536C37.1789 30.6362 38.6605 31.2996 39.7758 32.0746C40.8312 32.8067 43.1637 33.5278 45.0539 34.022C45.132 33.8221 45.2074 33.621 45.28 33.4185C45.4289 33.0028 45.5654 32.5814 45.6896 32.1541C45.7393 31.9846 45.7867 31.813 45.8316 31.6393C45.9055 31.361 45.9736 31.0805 46.0361 30.7979C46.0666 30.661 46.096 30.5234 46.1241 30.3851C46.144 30.2867 46.1635 30.1875 46.1823 30.0883C45.5795 29.9495 44.9841 29.7787 44.3986 29.5767Z" fill="#E1366A"/>
<path d="M25.3593 2.17089C38.2401 2.17089 48.6808 12.8187 48.6808 25.9539C48.6808 39.089 38.239 49.7368 25.3593 49.7368C12.4796 49.7368 2.03777 39.089 2.03777 25.9539C2.03777 12.8187 12.4796 2.17089 25.3593 2.17089ZM25.3593 4.82376e-05C19.0618 0.0109883 12.9928 2.41578 8.32967 6.74786C3.66658 11.0799 0.741885 17.0304 0.123015 23.4449C-0.495855 29.8594 1.23522 36.2804 4.9804 41.4624C8.72557 46.6443 14.2178 50.2176 20.3916 51.4891C26.5654 52.7605 32.9805 51.6395 38.3923 48.3434C43.8041 45.0473 47.8268 39.8112 49.68 33.6509C51.5331 27.4906 51.0846 20.8454 48.4214 15.0045C45.7581 9.16363 41.0701 4.54349 35.2668 2.04046C32.1314 0.687234 28.7621 -0.00666419 25.3593 4.82376e-05Z" fill="#E1366A"/>
<path d="M68.4357 36.9685C68.1297 36.9685 67.8721 36.8625 67.6627 36.6505C67.4534 36.4385 67.3487 36.1776 67.3487 35.8678V20.8983C67.3487 20.5885 67.4534 20.3276 67.6627 20.1156C67.8721 19.8873 68.1297 19.7732 68.4357 19.7732H74.0638C76.2538 19.7732 77.8963 20.2298 78.9914 21.1429C80.0864 22.0561 80.6339 23.2546 80.6339 24.7385C80.6339 25.7169 80.3601 26.6138 79.8126 27.4291C79.2812 28.2281 78.5002 28.807 77.4696 29.1658C78.629 29.4756 79.4181 30.2094 79.8368 31.3672C80.2716 32.5086 80.489 33.6338 80.489 34.7426V35.8678C80.489 36.1776 80.3843 36.4385 80.1749 36.6505C79.9656 36.8625 79.708 36.9685 79.402 36.9685C79.0638 36.9685 78.7901 36.8706 78.5807 36.6749C78.3875 36.463 78.2909 36.1939 78.2909 35.8678V35.134C78.2909 34.3186 78.2184 33.5685 78.0735 32.8837C77.9286 32.1825 77.5823 31.5628 77.0348 31.0247C76.4873 30.4703 75.658 30.1931 74.5469 30.1931H69.5468V35.8678C69.5468 36.1776 69.4341 36.4385 69.2086 36.6505C68.9993 36.8625 68.7417 36.9685 68.4357 36.9685ZM73.9188 28.0895C75.3037 28.0895 76.3987 27.8123 77.2039 27.2579C78.0252 26.7035 78.4358 25.9208 78.4358 24.9098C78.4358 23.9314 78.0815 23.1813 77.373 22.6595C76.6805 22.1376 75.4889 21.8767 73.7981 21.8767H69.5468V28.0895H73.9188Z" fill="#E1366A"/>
<path d="M85.6319 36.8462C85.3259 36.8462 85.0683 36.7402 84.8589 36.5282C84.6496 36.3162 84.5449 36.0553 84.5449 35.7455V20.8983C84.5449 20.5885 84.6496 20.3276 84.8589 20.1156C85.0683 19.8873 85.3259 19.7732 85.6319 19.7732H95.318C95.6078 19.7732 95.8494 19.8792 96.0426 20.0912C96.252 20.2868 96.3566 20.5314 96.3566 20.825C96.3566 21.1185 96.252 21.3631 96.0426 21.5588C95.8494 21.7544 95.6078 21.8523 95.318 21.8523H86.743V27.2579H94.4484C94.7383 27.2579 94.9798 27.3639 95.173 27.5759C95.3824 27.7716 95.4871 28.0162 95.4871 28.3097C95.4871 28.6032 95.3824 28.8478 95.173 29.0435C94.9798 29.2392 94.7383 29.337 94.4484 29.337H86.743V34.7671H95.318C95.6078 34.7671 95.8494 34.8731 96.0426 35.0851C96.252 35.2807 96.3566 35.5253 96.3566 35.8189C96.3566 36.1124 96.252 36.357 96.0426 36.5526C95.8494 36.7483 95.6078 36.8462 95.318 36.8462H85.6319ZM90.4628 18.7703C90.2696 18.7703 90.1086 18.7133 89.9798 18.5991C89.867 18.4687 89.8107 18.3056 89.8107 18.1099C89.8107 17.9632 89.867 17.8082 89.9798 17.6452L91.2116 15.4438C91.3727 15.134 91.6384 14.9791 92.0088 14.9791C92.2664 14.9791 92.4758 15.0606 92.6368 15.2237C92.8139 15.3867 92.9025 15.6069 92.9025 15.8841C92.9025 16.1124 92.822 16.3162 92.6609 16.4956L90.9943 18.5013C90.8493 18.6806 90.6722 18.7703 90.4628 18.7703Z" fill="#E1366A"/>
<path d="M105.262 37.0908C103.217 37.0908 101.301 36.6994 99.5136 35.9167C99.3203 35.8352 99.1593 35.7047 99.0305 35.5253C98.9016 35.3297 98.8372 35.1258 98.8372 34.9138C98.8372 34.6366 98.9258 34.4002 99.1029 34.2045C99.2962 33.9925 99.5377 33.8865 99.8276 33.8865C99.9886 33.8865 100.142 33.9191 100.287 33.9844C101.768 34.6529 103.354 34.9872 105.045 34.9872C107.863 34.9872 109.272 34.0496 109.272 32.1743C109.272 31.6851 109.087 31.2775 108.717 30.9513C108.362 30.6252 107.919 30.3725 107.388 30.1931C106.857 29.9974 106.1 29.7691 105.117 29.5082C103.813 29.1658 102.758 28.8396 101.953 28.5298C101.148 28.2037 100.456 27.7226 99.8759 27.0867C99.2962 26.4507 99.0063 25.6028 99.0063 24.5429C99.0063 23.6134 99.2479 22.7736 99.731 22.0235C100.214 21.2571 100.923 20.6537 101.857 20.2135C102.807 19.7569 103.942 19.5286 105.262 19.5286C107.034 19.5286 108.636 19.7976 110.069 20.3358C110.52 20.4988 110.746 20.825 110.746 21.3142C110.746 21.5751 110.657 21.8115 110.48 22.0235C110.303 22.2355 110.069 22.3415 109.779 22.3415C109.683 22.3415 109.554 22.3089 109.393 22.2436C108.137 21.8034 106.841 21.5832 105.504 21.5832C104.232 21.5832 103.193 21.8278 102.388 22.317C101.599 22.8062 101.204 23.4911 101.204 24.3716C101.204 24.9587 101.39 25.4397 101.76 25.8148C102.146 26.1735 102.621 26.4589 103.185 26.6709C103.765 26.8665 104.546 27.0785 105.528 27.3068C106.8 27.6166 107.823 27.9265 108.596 28.2363C109.385 28.5461 110.053 29.0272 110.601 29.6794C111.164 30.3317 111.446 31.2122 111.446 32.3211C111.446 33.2343 111.188 34.0577 110.673 34.7915C110.158 35.509 109.433 36.0716 108.499 36.4793C107.565 36.8869 106.486 37.0908 105.262 37.0908Z" fill="#E1366A"/>
<path d="M122.297 37.0908C120.606 37.0908 119.124 36.7157 117.852 35.9656C116.58 35.2155 115.598 34.18 114.905 32.8592C114.213 31.5384 113.851 30.0219 113.818 28.3097C113.851 26.5975 114.213 25.081 114.905 23.7601C115.598 22.4393 116.58 21.4038 117.852 20.6537C119.124 19.9036 120.606 19.5286 122.297 19.5286C123.988 19.5286 125.461 19.9036 126.717 20.6537C127.989 21.4038 128.971 22.4475 129.664 23.7846C130.372 25.1054 130.743 26.6138 130.775 28.3097C130.743 30.0056 130.372 31.5221 129.664 32.8592C128.971 34.18 127.989 35.2155 126.717 35.9656C125.461 36.7157 123.988 37.0908 122.297 37.0908ZM122.297 35.0117C123.585 35.0117 124.704 34.7182 125.654 34.1311C126.604 33.5441 127.329 32.7451 127.828 31.7341C128.327 30.723 128.577 29.5816 128.577 28.3097C128.577 27.0378 128.327 25.8963 127.828 24.8853C127.329 23.8743 126.604 23.0753 125.654 22.4882C124.704 21.9012 123.585 21.6077 122.297 21.6077C120.992 21.6077 119.865 21.9012 118.915 22.4882C117.981 23.0753 117.264 23.8743 116.765 24.8853C116.266 25.8963 116.016 27.0378 116.016 28.3097C116.016 29.5816 116.266 30.723 116.765 31.7341C117.264 32.7451 117.981 33.5441 118.915 34.1311C119.865 34.7182 120.992 35.0117 122.297 35.0117Z" fill="#E1366A"/>
<path d="M135.522 36.9685C135.216 36.9685 134.958 36.8625 134.749 36.6505C134.54 36.4385 134.435 36.1776 134.435 35.8678V21.2652C134.435 20.825 134.588 20.4499 134.894 20.1401C135.2 19.814 135.57 19.6509 136.005 19.6509H136.319C136.834 19.6509 137.277 19.8955 137.648 20.3847L146.947 33.9844V20.776C146.947 20.4662 147.052 20.2053 147.261 19.9933C147.471 19.765 147.728 19.6509 148.034 19.6509C148.34 19.6509 148.598 19.765 148.807 19.9933C149.033 20.2053 149.145 20.4662 149.145 20.776V35.3786C149.145 35.8189 148.984 36.1939 148.662 36.5037C148.356 36.8136 147.986 36.9685 147.551 36.9685H147.261C147.004 36.9685 146.762 36.9114 146.537 36.7972C146.311 36.6668 146.126 36.5037 145.981 36.308L136.633 22.635V35.8678C136.633 36.1776 136.52 36.4385 136.295 36.6505C136.086 36.8625 135.828 36.9685 135.522 36.9685Z" fill="#E1366A"/>
<path d="M153.777 36.9685C153.455 36.9685 153.189 36.8625 152.98 36.6505C152.786 36.4385 152.69 36.1776 152.69 35.8678C152.69 35.7373 152.73 35.5743 152.811 35.3786L158.97 20.6537C159.099 20.3602 159.276 20.1238 159.501 19.9444C159.743 19.7487 160.033 19.6509 160.371 19.6509H160.613C160.951 19.6509 161.232 19.7487 161.458 19.9444C161.699 20.1238 161.885 20.3602 162.014 20.6537L168.173 35.3786C168.254 35.5743 168.294 35.7373 168.294 35.8678C168.294 36.1776 168.189 36.4385 167.98 36.6505C167.787 36.8625 167.529 36.9685 167.207 36.9685C166.981 36.9685 166.772 36.9114 166.579 36.7972C166.402 36.6668 166.265 36.4956 166.168 36.2836L164.598 32.4679H156.385L154.815 36.2836C154.719 36.4956 154.574 36.6668 154.381 36.7972C154.203 36.9114 154.002 36.9685 153.777 36.9685ZM157.231 30.4377H163.753L160.492 22.4882L157.231 30.4377Z" fill="#E1366A"/>
<path d="M172.934 36.9685C172.628 36.9685 172.37 36.8625 172.161 36.6505C171.951 36.4385 171.847 36.1776 171.847 35.8678V21.2652C171.847 20.825 172 20.4499 172.306 20.1401C172.612 19.814 172.982 19.6509 173.417 19.6509H173.731C174.246 19.6509 174.689 19.8955 175.059 20.3847L184.359 33.9844V20.776C184.359 20.4662 184.464 20.2053 184.673 19.9933C184.882 19.765 185.14 19.6509 185.446 19.6509C185.752 19.6509 186.01 19.765 186.219 19.9933C186.444 20.2053 186.557 20.4662 186.557 20.776V35.3786C186.557 35.8189 186.396 36.1939 186.074 36.5037C185.768 36.8136 185.398 36.9685 184.963 36.9685H184.673C184.415 36.9685 184.174 36.9114 183.948 36.7972C183.723 36.6668 183.538 36.5037 183.393 36.308L174.045 22.635V35.8678C174.045 36.1776 173.932 36.4385 173.707 36.6505C173.497 36.8625 173.24 36.9685 172.934 36.9685Z" fill="#E1366A"/>
<path d="M198.676 37.0908C197.066 37.0908 195.617 36.7402 194.329 36.039C193.056 35.3215 192.05 34.3023 191.309 32.9815C190.585 31.6444 190.222 30.0871 190.222 28.3097C190.222 26.5323 190.585 24.9831 191.309 23.6623C192.05 22.3252 193.056 21.306 194.329 20.6048C195.617 19.8873 197.066 19.5286 198.676 19.5286C199.771 19.5286 200.746 19.659 201.599 19.9199C202.469 20.1809 203.33 20.5559 204.184 21.0451C204.538 21.2408 204.715 21.5506 204.715 21.9746C204.715 22.2192 204.627 22.4393 204.449 22.635C204.272 22.8144 204.039 22.904 203.749 22.904C203.588 22.904 203.443 22.8714 203.314 22.8062C202.606 22.4312 201.913 22.1458 201.237 21.9501C200.561 21.7544 199.78 21.6566 198.894 21.6566C197.509 21.6566 196.325 21.9501 195.343 22.5372C194.377 23.1079 193.644 23.8988 193.145 24.9098C192.662 25.9045 192.42 27.0378 192.42 28.3097C192.42 29.5816 192.662 30.723 193.145 31.7341C193.644 32.7288 194.377 33.5196 195.343 34.1067C196.325 34.6774 197.509 34.9628 198.894 34.9628C199.78 34.9628 200.561 34.8649 201.237 34.6692C201.913 34.4736 202.606 34.1882 203.314 33.8131C203.443 33.7479 203.588 33.7153 203.749 33.7153C204.039 33.7153 204.272 33.805 204.449 33.9844C204.627 34.1637 204.715 34.3839 204.715 34.6448C204.715 35.0687 204.538 35.3786 204.184 35.5743C203.33 36.0634 202.469 36.4385 201.599 36.6994C200.746 36.9603 199.771 37.0908 198.676 37.0908Z" fill="#E1366A"/>
<path d="M209.119 36.8462C208.813 36.8462 208.555 36.7402 208.346 36.5282C208.137 36.3162 208.032 36.0553 208.032 35.7455V20.8983C208.032 20.5885 208.137 20.3276 208.346 20.1156C208.555 19.8873 208.813 19.7732 209.119 19.7732H218.805C219.095 19.7732 219.336 19.8792 219.53 20.0912C219.739 20.2868 219.844 20.5314 219.844 20.825C219.844 21.1185 219.739 21.3631 219.53 21.5588C219.336 21.7544 219.095 21.8523 218.805 21.8523H210.23V27.2579H217.935C218.225 27.2579 218.467 27.3639 218.66 27.5759C218.869 27.7716 218.974 28.0162 218.974 28.3097C218.974 28.6032 218.869 28.8478 218.66 29.0435C218.467 29.2392 218.225 29.337 217.935 29.337H210.23V34.7671H218.805C219.095 34.7671 219.336 34.8731 219.53 35.0851C219.739 35.2807 219.844 35.5253 219.844 35.8189C219.844 36.1124 219.739 36.357 219.53 36.5526C219.336 36.7483 219.095 36.8462 218.805 36.8462H209.119Z" fill="#E1366A"/>
</svg>
