<svg width="344" height="404" viewBox="0 0 344 404" fill="none" xmlns="http://www.w3.org/2000/svg">
<path fill-rule="evenodd" clip-rule="evenodd" d="M122.82 12.6466C169.427 11.8111 222.811 -15.7708 259.239 13.2432C295.795 42.359 276.367 101.721 290.505 146.203C304.483 190.183 356.357 227.751 341.279 271.368C326.157 315.112 263.463 315.223 223.789 339.195C188.8 360.337 163.522 399.282 122.82 403.367C80.5442 407.611 36.8069 390.176 5.92556 361.062C-23.1631 333.638 -20.5435 288.722 -37.2632 252.446C-57.3198 208.93 -107.094 175.399 -101.576 127.821C-95.9567 79.3693 -53.5579 40.3859 -10.0823 18.0714C30.3325 -2.67206 77.3774 13.4613 122.82 12.6466Z" fill="#FFDADA"/>
</svg>
